<?xml version="1.0" encoding="UTF-8"?><svg id="Capa_2" xmlns="http://www.w3.org/2000/svg" viewBox="0 0 24.37 23.07"><defs><style>.cls-1{fill:none;}.cls-2{fill:#056734;}</style></defs><g id="Capa_1-2"><g><path class="cls-1" d="M20.56,8.93c.13-.07,.26-.14,.39-.21,0,0,0,0,0-.02,0-.29,0-.58,0-.86-.12,.12-.25,.24-.38,.36-.02,.24-.02,.48,0,.72Z"/><path class="cls-1" d="M18.99,7.8c-.05,.18-.11,.36-.18,.54l.6-.03c.07-.14,.14-.27,.21-.41,.03-.05,.05-.1,.08-.14l-.71,.04Z"/><path class="cls-1" d="M20.36,9.37c-.21,.12-.41,.25-.62,.38,.08,.22,.25,.39,.46,.5,.02,0,.03,.02,.04,.03,.1-.05,.21-.1,.32-.14l-.2-.78Z"/><path class="cls-1" d="M18.18,5.74c.24,.3,.55,.54,.81,.82,.03-.15,.05-.31,.07-.46v-.02c.02-.1,.05-.19,.1-.28l.1-.15s.06,.24,.08,.31c.01,.04,.01,.08,0,.12,0,0,0,0,0,.01,0,.02,0,.05,0,.07v.02h0c-.02,.17-.05,.34-.08,.52,.36-.05,.72-.11,1.08-.19,.05-.13,.07-.27,.02-.41-.08-.21-.3-.25-.46-.12-.09,.07-.26,.03-.25-.1,.03-.41-.45-.59-.67-.23-.06,.09-.19,.09-.25,0-.15-.24-.54-.24-.55,.09h0Z"/><path class="cls-1" d="M19.5,9.92c-.15,.1-.29,.21-.44,.32,.17,.27,.42,.35,.75,.3,.05-.03,.1-.06,.15-.09-.2-.13-.36-.31-.45-.52Z"/><path class="cls-1" d="M19.56,20.99l-.3,.12c.12,.09,.21,.21,.28,.34-.15,0-.3-.02-.43-.1l.12,.38h.01c.19-.07,.39-.14,.58-.24-.08-.18-.17-.35-.27-.51Z"/><path class="cls-1" d="M15.49,18.3c1.92,.05,3.77,1.29,4.59,3.05l.04-.02c.27-.2,.36-.81,.36-1.16,0-.77,.2-1.8-1.99-1.64-.92,.07-3.45-.34-3.26-2.05-.54,.94-1.01,1.61,.25,1.81Z"/><path class="cls-1" d="M20.09,21.37s.07-.04,.11-.07c-.03,.01-.05,.02-.07,.04-.01,0-.03,.02-.04,.03h0Z"/><path class="cls-1" d="M18.1,9.32c-.12-.09-.22-.19-.31-.31,.04,.28,.06,.56,.07,.83,.09-.17,.17-.35,.24-.52Z"/><polygon class="cls-1" points="17.72 8.65 17.72 8.65 17.72 8.65 17.72 8.65"/><path class="cls-1" d="M8.16,19.78c-.13,.04-.26,.08-.39,.12v.02l.66,1.67s0,.02,0,.03c.17-.06,.35-.13,.51-.21-.29-.53-.56-1.07-.79-1.63Z"/><path class="cls-1" d="M20.01,17.52l1.14-.65c-.04-.18-.09-.35-.15-.53l-1.33,.65c.08,.12,.16,.24,.24,.36,.03,.05,.07,.11,.1,.17Z"/><path class="cls-1" d="M20.39,18.28v.03c.31-.2,.59-.42,.89-.62-.01-.18-.04-.35-.07-.53l-1.06,.6c.05,.1,.1,.2,.15,.3,.03,.07,.06,.14,.09,.21Z"/><path class="cls-1" d="M19.46,16.71l.03,.04h0l1.4-.68c-.03-.08-.07-.16-.11-.24-.05-.1-.09-.19-.15-.28l-1.61,.62c.12,.14,.23,.29,.35,.43,.03,.04,.06,.07,.08,.11Z"/><path class="cls-1" d="M21.27,18.6h0c.02-.19,.02-.38,.02-.57-.27,.19-.53,.39-.8,.57,.01,.03,.02,.07,.03,.1,.04,.13,.07,.27,.09,.41v.05l.59-.52s.04-.03,.06-.03Z"/><path class="cls-1" d="M20.06,12.1c.22,.05,.44,.12,.66,.2l-.16-.47c-.17-.03-.35-.05-.53-.07l.03,.33Z"/><path class="cls-1" d="M21.46,13.08c-.63,.16-1.22,.42-1.76,.77,.04,.04,.09,.09,.13,.13,.13,.13,.26,.27,.38,.42,.71-.15,1.42-.23,2.14-.25-.23-.4-.52-.77-.89-1.07Z"/><path class="cls-1" d="M22.87,16.84c-.52-.21-1.05-.38-1.58-.53,.06,.17,.11,.34,.15,.52l1.34,.59c.03-.12,.05-.24,.07-.36,.01-.07,.02-.15,.03-.22Z"/><path class="cls-1" d="M9.67,18.65c-.17,.18-.32,.38-.46,.58,.12-.02,.24-.04,.36-.06l.39-.45c-.1-.03-.19-.05-.29-.07Z"/><path class="cls-1" d="M21.12,15.86s.03,.08,.05,.12h0c.59,.15,1.16,.34,1.73,.56,.01-.28,0-.55-.04-.83h0c-.64-.14-1.28-.22-1.92-.25,.07,.13,.13,.26,.19,.4Z"/><path class="cls-1" d="M5.08,21.2c-.14,.09-.31,.13-.47,.12,.08-.15,.2-.28,.35-.38,.22-.14,.44-.28,.66-.4l-.52-.35c-.31,.35-.58,.74-.78,1.17,.44,.23,.9,.39,1.37,.48l.14-1.09c-.25,.14-.5,.29-.75,.45Z"/><path class="cls-1" d="M6.77,18.96c-.27,.12-.54,.27-.78,.44l.59,.65c.12-.06,.25-.11,.37-.16l-.18-.93Z"/><path class="cls-1" d="M5.3,19.98l.6,.4c.13-.07,.26-.14,.4-.2l-.54-.6h0c-.16,.12-.31,.26-.45,.4Z"/><path class="cls-1" d="M6.47,20.42c-.11,.05-.22,.11-.33,.16h0l-.17,1.28h0c.17,.04,.34,.05,.52,.06v-1.5Z"/><path class="cls-1" d="M7.04,18.86l.18,.93c.08-.03,.17-.06,.25-.09,.01-.34,.07-.69,.16-1.02-.2,.05-.4,.1-.59,.18h0Z"/><path class="cls-1" d="M7.76,19.6c.13-.04,.25-.08,.38-.12,.05-.33,.16-.64,.33-.92-.18,0-.35,.03-.52,.05-.1,.32-.16,.65-.18,.98Z"/><path class="cls-1" d="M18.74,21.12v-.02c-.14-.08-.27-.17-.41-.25l.12,1.07c.17-.03,.34-.07,.51-.11l-.22-.7Z"/><path class="cls-1" d="M8.82,19.31c.15-.25,.32-.5,.51-.72-.17-.02-.35-.03-.52-.04-.18,.26-.29,.54-.36,.85,.12-.03,.25-.06,.37-.09Z"/><path class="cls-1" d="M13.08,19.33c-.05,.04-.1,.09-.15,.13,.08,.13,.17,.26,.27,.39l.53-.47c-.21-.02-.43-.04-.64-.05Z"/><path class="cls-1" d="M15.42,19.68l-.88,1.44c.13,.08,.26,.16,.39,.24,.3-.51,.57-1.04,.81-1.59-.11-.03-.21-.06-.32-.09Z"/><path class="cls-1" d="M14.78,19.54h0l-.88,1.08c.13,.12,.27,.23,.41,.34l.82-1.34c-.11-.03-.23-.05-.34-.07Z"/><path class="cls-1" d="M8.15,21.66l-.65-1.67h0c-.09,.03-.17,.06-.26,.1,0,0,0,.02,0,.03l.3,1.73c.21-.04,.42-.08,.63-.14,0-.01-.02-.02-.02-.04Z"/><path class="cls-1" d="M16.41,19.98c-.13-.05-.26-.09-.39-.13-.25,.56-.52,1.11-.83,1.64,.17,.08,.34,.16,.52,.22,0-.02,0-.04,.01-.05l.68-1.66v-.02Z"/><path class="cls-1" d="M8.76,19.62c-.11,.03-.21,.05-.32,.08,.23,.54,.49,1.07,.77,1.59,.13-.07,.27-.15,.39-.23l-.85-1.44Z"/><path class="cls-1" d="M9.41,19.5h0c-.11,0-.23,.03-.34,.05l.79,1.34c.14-.1,.28-.21,.42-.32l-.86-1.07Z"/><path class="cls-1" d="M11.08,19.31c-.21,0-.42,.02-.62,.04l.52,.48c.09-.12,.18-.24,.27-.37-.05-.05-.11-.1-.16-.15Z"/><path class="cls-1" d="M19.6,10.92c-.11,.16-.19,.33-.27,.5,.12,0,.25,.02,.37,.03l.53-.57c-.2-.04-.41-.03-.64,.04Z"/><path class="cls-1" d="M7.76,6.09c.33-.44,.66-.79,1-1.06,.15-.12,.3-.23,.45-.32,.26-.16,.51-.29,.76-.38,.07-.03,.14-.05,.21-.07,.03-.01,.07-.02,.1-.03,.07-.02,.13-.03,.2-.05,.13-.03,.26-.04,.38-.05,.06,0,.12,0,.18,0,.03,0,.06,0,.09,0,.1,0,.2,0,.29,.02,.27,.03,.54,.05,.81,.05,.27,0,.54-.01,.81-.04,.09,0,.19-.01,.29-.01,.03,0,.06,0,.09,0,.06,0,.12,0,.18,.01,.12,.01,.25,.03,.38,.06,.07,.01,.13,.03,.2,.05,.03,0,.07,.02,.1,.03,.07,.02,.14,.05,.21,.07,.24,.09,.5,.22,.75,.39,.15,.1,.29,.21,.44,.33,.33,.28,.66,.63,.98,1.08,.32,.45,.57,.9,.75,1.36-.12-1.28-.65-2.51-1.5-3.44-.97-1.06-2.24-1.64-3.59-1.66-1.43-.01-2.72,.54-3.72,1.59-.85,.88-1.4,2.06-1.55,3.32,.18-.42,.42-.84,.74-1.26Z"/><path class="cls-1" d="M13.77,10.78c-.34,0-.62-.28-.62-.63v-.02c-.3-.22-.54-.5-.72-.82h-.53c-.18,.32-.43,.59-.73,.8,0,.34-.28,.62-.63,.61-.17,0-.33-.07-.44-.19-.37,.08-.75,.13-1.08,.27,.75-.07,1.55,.16,2.09,.69,.13,.13-.07,.33-.21,.2-.55-.53-1.4-.72-2.13-.56-.08,.02-.13-.02-.16-.08-.41,.35-.65,.89-.71,1.43-.06,.63,.09,1.27,.29,1.87,.35,1.03,.87,2.01,1.5,2.9,.27,.38,.56,.75,.93,1.03,.34,.25,.91,.44,1.36,.45h.03s.04,0,.05,0c.02,0,.04,0,.05,0h.03c.45,0,1.03-.18,1.37-.43,.38-.27,.68-.64,.95-1.01,.65-.88,1.18-1.85,1.55-2.88,.22-.6,.38-1.23,.33-1.87-.05-.54-.27-1.09-.68-1.44-.03,.04-.08,.06-.14,.05-.74-.17-1.6,.03-2.15,.55-.14,.13-.34-.08-.2-.21,.53-.5,1.29-.73,2.02-.68-.31-.13-.65-.18-.98-.26-.11,.12-.28,.2-.46,.2Zm-1.33,4.34l.3-.12c.07-.03,.16,.03,.18,.1,.02,.08-.03,.15-.1,.18l-.3,.12c-.07,.03-.16-.03-.18-.1-.02-.08,.03-.15,.1-.18Zm-1.11-.03c.02-.07,.11-.13,.18-.1l.3,.12c.07,.03,.12,.1,.1,.18-.02,.07-.11,.13-.18,.1l-.3-.12c-.07-.03-.12-.1-.1-.18Zm-1.17-2.12c-.35,0-.64-.29-.64-.65,0-.02,0-.03,0-.05-.49,.1-.55,.37-.56,.41-.01,.04-.03,.07-.06,.09-.03,.02-.07,.02-.11,.02-.12,0-.14,0-.11-.17,0-.02,.12-.53,.85-.65,.6-.1,1.24,.2,1.58,.51,.1,.09,.16,.23,.16,.37h-.04c-.11-.02-.21-.06-.28-.13-.05-.05-.12-.1-.19-.15-.1,.24-.33,.4-.6,.4Zm2.75,4.11c-.25,.22-.52,.34-.8,.33-.48,0-.81-.34-.83-.35-.06-.06-.05-.15,0-.2,.06-.06,.15-.05,.2,0,.02,.02,.59,.58,1.23,0,.06-.05,.15-.05,.2,.01,.05,.06,.05,.15-.01,.2Zm.51-.56s-.71,.31-1.32,.16c-.61,.14-1.29-.17-1.31-.18l-.1-.06h0c.05-.03,.11-.05,.17-.07,.21-.04,.57-.22,.75-.31,.11-.05,.13-.06,.15-.07,.06-.01,.16,0,.2,.05,.04,.06,.09,.07,.14,.07,.05,0,.1-.01,.14-.07,.04-.06,.14-.06,.2-.05,.02,0,.04,.02,.14,.07,.18,.09,.54,.28,.75,.33,.06,.01,.12,.03,.17,.06h0l-.11,.07Zm1.3-4.49c.73,.13,.83,.64,.84,.66,.01,.08-.04,.15-.11,.17-.08,.01-.15-.04-.17-.11,0-.01-.07-.31-.56-.42,0,.02,0,.03,0,.05,0,.35-.29,.64-.65,.64-.27,0-.5-.17-.59-.41-.13,.08-.23,.17-.29,.26-.03,.04-.07,.06-.11,.06-.03,0-.06-.01-.08-.03-.03-.02-.05-.06-.05-.09,0-.04,0-.08,.03-.11,.26-.35,1.04-.78,1.76-.65Z"/><path class="cls-1" d="M21.23,7.55c0,.34,0,.69,0,1.03,.17-.08,.35-.16,.53-.24,.07-.57,.12-1.14,.19-1.7l-.03,.03c-.26,.26-.46,.58-.69,.86,0,0,0,.01,0,.02Z"/><path class="cls-1" d="M18.1,10.58c-.06-.13-.07-.29-.07-.44-.06,.11-.12,.22-.18,.33,0,.14-.01,.29-.02,.43,.09-.08,.18-.17,.28-.25,0-.02,0-.05,0-.07Z"/><path class="cls-1" d="M21.12,8.96c-.17,.08-.34,.17-.5,.26l.22,.84c.31-.09,.63-.13,.97-.14l-.69-.96Z"/><path class="cls-1" d="M20.4,14.65c.13,.17,.24,.34,.35,.52,.69,.02,1.37,.1,2.05,.24-.07-.34-.17-.66-.31-.97h-.02c-.69,.01-1.38,.09-2.06,.22Z"/><path class="cls-1" d="M21.08,12.48c.19,.1,.37,.22,.53,.36,.11,.09,.21,.18,.31,.28-.17-.37-.34-.74-.52-1.11h0c-.17-.05-.35-.08-.52-.12l.21,.59Z"/><path class="cls-1" d="M21.5,17.17c.03,.18,.05,.35,.06,.53l.86,.79c.11-.26,.21-.52,.28-.79l-1.2-.53Z"/><path class="cls-1" d="M17.81,12.74c-.09,.07-.16,.14-.23,.23-.01,.1-.02,.2-.03,.3,0,.02,0,.03,0,.05,.24-.1,.48-.18,.73-.23-.16-.11-.32-.23-.47-.35Z"/><path class="cls-1" d="M19.14,12.03h.03c.2-.01,.4,0,.6,.02l-.03-.31c-.17-.01-.35-.03-.52-.04l-.08,.33Z"/><path class="cls-1" d="M18.84,10.41c-.12,.09-.24,.19-.35,.28,.17,.22,.36,.42,.59,.58,.07-.17,.16-.33,.26-.49-.2-.06-.37-.18-.5-.38Z"/><path class="cls-1" d="M18.84,15.94l1.66-.64c-.11-.18-.23-.35-.35-.51-.59,.17-1.17,.38-1.74,.62,.14,.18,.29,.36,.44,.54h0Z"/><path class="cls-1" d="M18.23,6.22c.02,.11,.04,.22,.05,.33,.02,.18,.03,.35,.02,.53l.49,.33c.05-.17,.09-.33,.13-.5-.21-.25-.46-.46-.69-.69Z"/><path class="cls-1" d="M17.92,8.7c.08,.13,.18,.25,.3,.35,.08-.18,.15-.37,.21-.55-.12-.08-.24-.17-.34-.27-.05,.13-.1,.26-.16,.39-.01,.02-.02,.04-.04,.05,.01,0,.02,.02,.03,.03Z"/><path class="cls-1" d="M18.03,14.88c.06,.09,.12,.19,.19,.28,.56-.24,1.14-.44,1.72-.62-.12-.15-.26-.29-.39-.43-.02-.02-.03-.03-.05-.05-.55,.11-1.08,.28-1.58,.52-.02,0-.04,.01-.05,.01,.01,.03,.03,.05,.04,.08,.04,.07,.08,.13,.12,.2Z"/><path class="cls-1" d="M18.08,11.68c-.11,0-.22,0-.33,0-.03,.28-.07,.56-.11,.81,.05-.04,.1-.07,.16-.11l.28-.72Z"/><path class="cls-1" d="M17.68,14.16c.02,.07,.05,.13,.07,.19,0,0,.02-.01,.03-.02,.47-.22,.96-.39,1.47-.51-.2-.18-.42-.35-.64-.51-.35,.04-.69,.14-1,.29-.02,0-.03,.01-.04,.01,0,.11,.03,.22,.05,.32,.02,.07,.04,.14,.06,.21Z"/><path class="cls-1" d="M20.25,8.46c-.13,.1-.26,.21-.39,.31,0,.01,0,.03,0,.04-.07,.21-.12,.41-.14,.63,.19-.12,.38-.24,.57-.35-.03-.21-.04-.41-.03-.62Z"/><path class="cls-1" d="M19.24,9.21h-.02v.02c-.18,.2-.26,.45-.24,.7,.14-.1,.29-.21,.43-.31,0-.2,.03-.4,.07-.59-.08,.06-.16,.12-.25,.17Z"/><path class="cls-1" d="M18.7,7.7l-.43-.29c-.02,.17-.05,.34-.1,.51,.11,.11,.23,.2,.35,.29,.06-.17,.12-.34,.17-.51Z"/><path class="cls-1" d="M18.39,11.68l-.21,.54c.21-.08,.44-.13,.65-.16l.09-.37c-.18,0-.35,0-.53,0Z"/><path class="cls-1" d="M19.2,7c-.04,.17-.08,.34-.12,.51l.8-.04c.12-.21,.24-.41,.33-.63-.33,.07-.67,.13-1.01,.17Z"/><path class="cls-1" d="M18.8,13.11c.23,.17,.46,.35,.67,.54h.01c.52-.36,1.08-.62,1.67-.79-.38-.25-.82-.42-1.27-.5-.42,.17-.78,.42-1.08,.75Z"/><path class="cls-1" d="M19.21,12.31c-.33,.01-.77,.09-1.14,.26,.16,.12,.33,.24,.49,.36,.23-.25,.48-.46,.77-.63-.04,0-.09,0-.13,0Z"/><path class="cls-1" d="M17.78,11.4c.32,0,.65-.01,.98,0-.18-.15-.35-.32-.49-.51-.16,.14-.32,.29-.48,.44v.07Z"/><path class="cls-1" d="M18.79,9.39c-.1,.02-.19,.04-.3,.05-.02,0-.03,0-.04,0-.02,.01-.04,.03-.06,.03-.03,.15-.05,.3-.06,.45-.01,.16-.04,.36,.03,.52,.12-.1,.24-.2,.37-.3-.06-.25-.03-.51,.07-.75Z"/><path class="cls-1" d="M18.78,8.63s-.04,0-.06,0h-.01c-.07,.18-.14,.35-.21,.52,.18-.01,.36-.07,.53-.14,.08-.13,.15-.26,.22-.4l-.47,.02Z"/><path class="cls-1" d="M5.15,6.58c-.03-.17-.05-.34-.07-.52h0v-.02s0-.05,0-.07c0,0,0,0,0-.01,0-.04,0-.08,.01-.12,.02-.07,.09-.31,.09-.31l.1,.15c.05,.09,.08,.18,.09,.28v.02c.02,.15,.04,.31,.07,.46,.27-.27,.58-.51,.83-.8h0c0-.34-.4-.34-.55-.1-.06,.09-.19,.09-.25,0-.22-.36-.69-.19-.67,.22,0,.14-.16,.17-.25,.1-.17-.14-.37-.07-.47,.11-.06,.13-.03,.28,.01,.41,.35,.09,.71,.16,1.07,.21Z"/><path class="cls-1" d="M3.43,8.55s0,0,0,.01c.13,.07,.26,.14,.39,.21,.03-.24,.03-.48,.01-.72-.13-.12-.25-.24-.38-.37,0,.29-.03,.58-.02,.86Z"/><path class="cls-1" d="M5.56,8.23c-.06-.18-.11-.36-.17-.54l-.71-.05s.05,.1,.08,.15c.07,.14,.14,.27,.21,.41l.6,.04Z"/><path class="cls-1" d="M6.27,9.22c.07,.17,.15,.34,.22,.5,.01-.26,.04-.52,.08-.79-.09,.11-.19,.2-.3,.29Z"/><path class="cls-1" d="M3.56,19v-.04c.03-.14,.07-.28,.11-.41,.01-.04,.02-.07,.03-.11-.27-.18-.52-.38-.78-.57,0,.19,0,.38,.01,.57h0s.04,.02,.06,.04l.56,.52Z"/><path class="cls-1" d="M2.99,8.67c-.17-.09-.35-.17-.52-.25,0,0-.01,.02-.02,.03-.39,.47-.81,.91-1.26,1.32,.26,.03,.53,0,.75-.01,.08,0,.17,0,.25-.01l.8-1.08Z"/><path class="cls-1" d="M3.71,11.4c.18-.02,.36-.04,.55-.06l-.47-.53h0c-.19,.06-.39,.13-.58,.2l.51,.39Z"/><path class="cls-1" d="M2.19,8.3c-.16-.07-.33-.13-.5-.19h-.04v-.02c-.06-.02-.12-.05-.16-.09-.06-.04-.24-.21-.24-.21l.18-.02c.1,0,.21,.01,.3,.05h0c.19,.07,.39,.15,.58,.23-.06-.58-.1-1.17-.16-1.75,0-.01,0-.02,0-.04-.1-.04-.2-.06-.3-.03-.41,.12-.27,.53-.12,.79,.06,.1-.05,.25-.16,.21-.31-.11-.64-.05-.77,.28-.11,.28,.01,.61,.26,.77,.15,.1,.01,.35-.15,.25-.2-.12-.47-.02-.58,.18-.11,.22-.03,.53,.11,.71,.1,.13,.24,.21,.38,.26,.49-.43,.94-.89,1.35-1.39Z"/><path class="cls-1" d="M2.62,8.17c.18,.08,.35,.16,.52,.25,0-.34,.03-.69,.03-1.03,0,0,0-.01,0-.02-.23-.29-.42-.61-.68-.87l-.03-.03c.06,.57,.1,1.14,.16,1.71Z"/><path class="cls-1" d="M4.94,9.5c.14,.1,.29,.21,.43,.31,.03-.25-.05-.5-.22-.71h0l-.02-.02c-.08-.06-.16-.12-.24-.18,.04,.19,.06,.39,.06,.59Z"/><path class="cls-1" d="M2.95,16.15c-.54,.14-1.07,.3-1.59,.5,.02,.2,.04,.39,.08,.58l1.35-.57c.04-.17,.1-.35,.16-.52Z"/><path class="cls-1" d="M4.14,10.11c.22-.1,.38-.27,.47-.49-.2-.14-.4-.27-.61-.4l-.22,.77c.11,.04,.21,.09,.31,.14,.01-.01,.02-.02,.04-.03Z"/><path class="cls-1" d="M4.08,8.94c.19,.12,.38,.23,.56,.36-.02-.21-.06-.42-.13-.63,0-.01,0-.03,0-.04-.13-.1-.26-.21-.39-.31,0,.21-.01,.41-.04,.62Z"/><path class="cls-1" d="M2.76,11.57c.18-.04,.37-.08,.56-.11l-.46-.36h0s-.08,.01-.11,.02c-.21,.02-.39-.01-.57-.07,.18,.19,.38,.36,.59,.52Z"/><path class="cls-1" d="M5.28,10.11c-.14-.11-.29-.22-.43-.32-.1,.21-.26,.39-.46,.52,.05,.03,.1,.06,.15,.1,.33,.05,.58-.02,.75-.29Z"/><path class="cls-1" d="M4.07,14.25c.12-.14,.25-.28,.38-.41,.04-.04,.09-.09,.14-.13-.54-.37-1.12-.63-1.75-.8-.1,.08-.2,.16-.29,.25-.25,.24-.46,.51-.62,.8,.72,.03,1.43,.13,2.14,.28Z"/><path class="cls-1" d="M4.1,10.73l.52,.58c.12,0,.25-.01,.37-.02-.07-.18-.15-.35-.26-.51-.22-.08-.43-.09-.64-.06Z"/><path class="cls-1" d="M3.59,12.15c.21-.08,.43-.15,.66-.19l.04-.33c-.18,.02-.35,.04-.53,.06l-.17,.46Z"/><path class="cls-1" d="M14.46,19.48c-.12-.02-.25-.04-.38-.06,0,.02-.02,.04-.04,.05l-.66,.59h-.01c.1,.13,.2,.24,.31,.35l.78-.94Z"/><path class="cls-1" d="M22.28,18.75l-.7-.65c0,.18,0,.36-.03,.54l.43,.67c.11-.18,.22-.37,.31-.56h-.02Z"/><path class="cls-1" d="M22.68,11.07c-.23,.29-.48,.54-.77,.76,.06,.02,.13,.04,.19,.06,.1,.03,.19,.08,.27,.15l.13,.13s-.25,.02-.32,.02-.15-.02-.22-.04c-.07-.02-.13-.04-.2-.06,.17,.36,.33,.72,.5,1.08,.28,0,.5-.25,.2-.49-.11-.09,.01-.29,.14-.24,.41,.16,.58-.44,.15-.53-.17-.04-.12-.28,.04-.28,.28,0,.39-.34,.17-.5-.09-.07-.19-.08-.29-.06h0Z"/><path class="cls-1" d="M21.49,19.08c-.06,.33-.15,.65-.26,.97-.06,.16-.18,.29-.32,.37v-.09c-.02-.11,0-.22,.04-.32,.13-.32,.22-.65,.28-.99l-.48,.43s-.05,.03-.07,.04c.01,.15,.02,.3,.01,.46h0c0,.35-.06,.71-.15,1.11h0c.48-.44,.92-.94,1.28-1.47l-.32-.5Z"/><path class="cls-1" d="M17.41,20.38c-.07-.03-.14-.06-.21-.09l-.32,1.69s.06,0,.09,.01c.13,.01,.27,.02,.4,.02l.04-1.63Z"/><path class="cls-1" d="M21.47,11.26l-.47,.35c.19,.03,.37,.07,.56,.12,.22-.15,.42-.32,.6-.5-.18,.05-.36,.08-.57,.05-.04,0-.08-.01-.11-.02h0Z"/><path class="cls-1" d="M10.25,18.82h0l-.25,.29c.23-.03,.47-.05,.7-.07-.14-.09-.3-.16-.45-.22Z"/><path class="cls-1" d="M20.55,10.96l-.48,.52c.18,.02,.36,.04,.55,.07l.52-.38c-.19-.07-.39-.15-.58-.21h0Z"/><path class="cls-1" d="M21.93,8.62s-.01-.02-.02-.03c-.18,.07-.35,.15-.53,.24l.78,1.09c.08,0,.17,0,.25,.02,.23,.02,.49,.05,.75,.03-.44-.42-.86-.86-1.24-1.34Z"/><path class="cls-1" d="M3.49,19.79h0c0-.16,0-.32,.02-.47-.02,0-.04-.02-.06-.03l-.48-.44c.05,.34,.14,.67,.26,.99,.04,.1,.05,.21,.04,.32v.09c-.16-.08-.27-.22-.33-.37-.11-.32-.19-.64-.25-.97l-.33,.5s.05,.08,.08,.12c.32,.47,.72,1,1.18,1.38-.09-.4-.13-.77-.13-1.12Z"/><path class="cls-1" d="M10.78,20.04l-.65-.6s-.03-.03-.04-.05c-.13,.01-.25,.03-.38,.05l.76,.94c.11-.11,.22-.22,.32-.33h-.01Z"/><path class="cls-1" d="M11.8,20.26l.08-.08-.03-.03s-.03,.07-.04,.11Z"/><path class="cls-1" d="M6.97,20.2c-.07,.03-.14,.06-.21,.09v1.63c.17,0,.34-.02,.5-.03l-.29-1.69Z"/><path class="cls-1" d="M16.92,20.2s0-.02,0-.03c-.09-.03-.17-.07-.26-.1h0l-.68,1.66s-.02,.04-.04,.06c.21,.06,.42,.12,.64,.15l.33-1.74Z"/><path class="cls-1" d="M2.56,11.91c-.07,.02-.13,.03-.2,.05-.07,.02-.15,.04-.22,.04s-.32-.03-.32-.03l.13-.13c.08-.06,.17-.11,.27-.14,.06-.02,.13-.04,.19-.05-.28-.23-.53-.48-.75-.77h0c-.14-.03-.28-.01-.36,.11-.13,.19,.02,.44,.24,.44,.16,0,.2,.25,.04,.28-.44,.08-.27,.68,.14,.53,.13-.05,.25,.15,.14,.24-.3,.23-.08,.48,.19,.49,.18-.35,.35-.71,.52-1.07Z"/><path class="cls-1" d="M5.34,8.89c.17,.07,.34,.13,.53,.14-.07-.17-.14-.35-.2-.52h-.01s-.03,0-.06,0l-.47-.03c.07,.13,.14,.27,.22,.4Z"/><path class="cls-1" d="M12.29,20.19l.08,.08s-.03-.07-.04-.11l-.03,.03Z"/><path class="cls-1" d="M5.63,10.02c.12,.1,.24,.2,.36,.3,.07-.15,.04-.36,.04-.51,0-.15-.03-.3-.06-.45-.02,0-.04-.02-.06-.03-.01,0-.03,0-.04,0-.1,0-.2-.03-.3-.05,.1,.24,.12,.5,.05,.75Z"/><path class="cls-1" d="M2.72,17l-1.21,.51c.07,.27,.16,.54,.27,.8l.87-.78c.02-.18,.04-.35,.07-.53Z"/><path class="cls-1" d="M3.51,15.01c.11-.18,.23-.35,.36-.51-.68-.14-1.36-.23-2.06-.25h-.02c-.15,.31-.26,.63-.33,.97,.68-.12,1.36-.19,2.05-.2Z"/><path class="cls-1" d="M2.63,17.93l-.71,.64h-.02c.09,.21,.19,.39,.3,.58l.45-.67c-.01-.18-.02-.36-.02-.54Z"/><path class="cls-1" d="M5.49,6.79c.04,.17,.08,.34,.12,.5l.49-.32c0-.18,0-.36,.03-.53,.01-.11,.04-.22,.06-.33-.24,.23-.49,.43-.7,.68Z"/><path class="cls-1" d="M3.25,8.8l-.7,.95c.33,.02,.65,.07,.96,.16l.23-.83c-.16-.09-.33-.19-.5-.27Z"/><path class="cls-1" d="M3.16,12.35s.04-.02,.06-.03l.22-.59c-.18,.03-.35,.06-.52,.1h0c-.18,.37-.36,.74-.54,1.11,.23-.23,.49-.42,.78-.59Z"/><path class="cls-1" d="M5.21,6.88c-.34-.05-.68-.11-1.01-.18,.09,.22,.2,.43,.32,.64l.8,.06c-.04-.17-.08-.34-.11-.51Z"/><path class="cls-1" d="M6.16,8.94c.12-.1,.22-.21,.3-.34,0-.01,.02-.02,.03-.03-.02-.01-.03-.03-.04-.05-.06-.13-.11-.26-.15-.39-.11,.09-.23,.18-.35,.26,.06,.19,.13,.37,.21,.55Z"/><path class="cls-1" d="M18.17,21.97l-.15-1.28h0c-.11-.06-.22-.12-.33-.17l-.04,1.5c.17,0,.34-.02,.52-.04h0Z"/><path class="cls-1" d="M5.69,18.43c-2.19-.2-2.01,.83-2.02,1.6,0,.34,.07,.92,.32,1.14,.02,.02,.05,.03,.07,.05,.35-.72,.85-1.35,1.48-1.85,.76-.6,1.81-1.01,2.86-1.1-.03,0-.07,0-.1,0,1.57-.08,1.34-.67,.86-1.53-.08-.12-.14-.23-.17-.31,.17,1.71-2.37,2.07-3.29,1.99Z"/><path class="cls-1" d="M15.39,18.61c-.17,0-.35,0-.52,.03,.19,.23,.36,.47,.5,.73,.12,.03,.25,.06,.37,.1-.06-.3-.18-.59-.35-.85Z"/><path class="cls-1" d="M13.94,18.85h0c-.16,.05-.32,.12-.47,.21,.24,.02,.48,.05,.72,.08l-.24-.29Z"/><path class="cls-1" d="M18.42,19.69h0l-.55,.6c.13,.07,.26,.13,.39,.21l.61-.39c-.14-.15-.29-.28-.45-.41Z"/><path class="cls-1" d="M15.73,18.63c.16,.29,.26,.6,.31,.93,.13,.04,.25,.08,.38,.12-.02-.33-.07-.67-.17-.99h-.03c-.16-.03-.32-.05-.49-.06Z"/><path class="cls-1" d="M14.53,18.69c-.1,.02-.2,.04-.29,.07l.38,.46c.12,.02,.24,.04,.36,.07-.13-.21-.29-.41-.45-.6Z"/><path class="cls-1" d="M19.07,20.31l-.52,.34c.15,.09,.29,.17,.43,.27l.42-.17c-.1-.15-.21-.29-.33-.43Z"/><path class="cls-1" d="M18.19,19.51c-.24-.17-.5-.33-.77-.45l-.19,.93c.12,.05,.25,.11,.37,.17l.6-.64Z"/><path class="cls-1" d="M17.15,18.95h0c-.19-.08-.38-.14-.58-.19,.09,.33,.13,.68,.14,1.02,.08,.03,.16,.06,.25,.09l.19-.93Z"/><path class="cls-1" d="M6.24,10.47s0,.05,0,.07c.09,.08,.17,.16,.26,.24,0-.14-.01-.29-.01-.44-.06-.1-.11-.21-.16-.31,0,.15-.01,.31-.08,.44Z"/><path class="cls-1" d="M5.18,11.91l-.07-.33c-.17,0-.35,.01-.52,.03l-.04,.31c.21-.02,.42-.03,.63,0Z"/><path class="cls-1" d="M3.01,17.01c-.03,.17-.06,.35-.08,.52,.29,.2,.57,.43,.86,.63v-.03c.04-.07,.07-.14,.1-.2,.05-.1,.1-.21,.16-.31l-1.04-.62Z"/><path class="cls-1" d="M23.46,8.73c-.16,.1-.3-.15-.14-.25,.25-.16,.37-.48,.27-.77-.12-.34-.46-.4-.77-.3-.12,.04-.22-.11-.16-.21,.16-.26,.3-.67-.1-.8-.1-.03-.2-.01-.3,.03,0,.01,0,.02,0,.04-.07,.58-.12,1.17-.19,1.75,.19-.08,.39-.15,.59-.22h0c.1-.04,.2-.05,.3-.05l.18,.03s-.18,.17-.24,.21c-.05,.03-.1,.06-.16,.09h0l-.03,.02h0c-.17,.06-.33,.12-.5,.18,.41,.5,.85,.97,1.33,1.41,.15-.05,.28-.13,.39-.26,.15-.17,.23-.49,.13-.71-.1-.21-.37-.31-.57-.19Z"/><path class="cls-1" d="M5.25,11.16c.23-.16,.43-.35,.6-.57-.11-.1-.23-.2-.34-.29-.13,.2-.3,.32-.51,.37,.1,.16,.18,.32,.25,.49Z"/><path class="cls-1" d="M5.56,11.28c.32,0,.65,0,.97,.02v-.09c-.16-.15-.31-.3-.47-.44-.15,.19-.32,.35-.5,.5Z"/><path class="cls-1" d="M5.48,11.94c.2,.03,.43,.09,.65,.18l-.2-.55c-.18,0-.35,0-.53,0l.08,.37Z"/><path class="cls-1" d="M6.72,13.17c0-.1-.01-.21-.02-.32-.06-.08-.13-.15-.21-.22-.16,.11-.32,.23-.48,.34,.25,.06,.48,.13,.72,.24v-.04Z"/><path class="cls-1" d="M5.85,8.1c.13-.09,.24-.18,.36-.29-.04-.17-.07-.34-.09-.51l-.43,.28c.05,.17,.11,.35,.16,.52Z"/><path class="cls-1" d="M6.24,11.58l.27,.73s.1,.06,.14,.1c-.03-.26-.06-.53-.09-.81-.11,0-.21,0-.32-.01Z"/><path class="cls-1" d="M5.21,16.04l-1.59-.65c-.05,.09-.1,.19-.15,.28-.04,.08-.08,.16-.11,.24l1.38,.7,.03-.04s.06-.07,.09-.11c.12-.15,.24-.29,.36-.43Z"/><path class="cls-1" d="M4.12,14.64c-.13,.16-.25,.33-.36,.51l1.64,.67c.15-.18,.3-.36,.45-.53-.56-.25-1.14-.46-1.72-.64Z"/><path class="cls-1" d="M5.73,12.82c.17-.12,.34-.24,.5-.35-.39-.2-.88-.28-1.26-.29,.28,.17,.54,.39,.76,.64Z"/><path class="cls-1" d="M3.24,16.19c-.06,.17-.12,.35-.16,.52l1.12,.66c.03-.05,.07-.11,.1-.16,.08-.12,.17-.24,.25-.36l-1.31-.67Z"/><path class="cls-1" d="M4.42,12.22c-.45,.07-.89,.23-1.28,.48,.59,.18,1.14,.45,1.65,.81h.01c.22-.18,.45-.35,.68-.52-.3-.33-.66-.59-1.07-.77Z"/><path class="cls-1" d="M3.33,15.3c-.65,.02-1.29,.09-1.93,.21h0c-.04,.27-.06,.55-.05,.83,.57-.21,1.14-.39,1.73-.53h0s.03-.08,.05-.12c.06-.13,.13-.27,.2-.4Z"/><path class="cls-1" d="M6.66,13.85c.03-.1,.05-.21,.06-.32-.01,0-.02,0-.03-.01-.32-.16-.65-.26-1-.31-.22,.16-.44,.32-.65,.5,.5,.13,.99,.3,1.46,.53h.02c.03-.05,.05-.11,.08-.17,.03-.07,.05-.14,.07-.21Z"/><path class="cls-1" d="M6.35,14.57s.03-.05,.04-.08c-.01,0-.03,0-.04-.01-.5-.24-1.03-.42-1.58-.55-.02,.02-.03,.03-.05,.04-.14,.13-.27,.27-.4,.42,.58,.19,1.15,.4,1.7,.65,.07-.09,.13-.18,.19-.28,.04-.07,.08-.13,.12-.2Z"/><path class="cls-2" d="M17.16,4.96c.03,.06,.09,.1,.16,.1,.02,0,.05,0,.07-.01l1.4-.62c.09-.04,.13-.14,.09-.23s-.14-.13-.23-.09l-1.4,.62c-.09,.04-.13,.14-.09,.23Z"/><path class="cls-2" d="M16.71,3.8s.08,.07,.14,.07c.04,0,.07-.01,.11-.04l.63-.48c.08-.06,.09-.17,.03-.24-.06-.08-.17-.09-.24-.03l-.63,.48c-.08,.06-.09,.17-.03,.24Z"/><path class="cls-2" d="M15.58,2.86s.07,.04,.11,.04c.05,0,.1-.02,.14-.07l.96-1.2c.06-.07,.05-.18-.03-.24-.07-.06-.18-.05-.24,.03l-.96,1.2c-.06,.07-.05,.18,.03,.24Z"/><path class="cls-2" d="M14.56,2.21s.05,.02,.08,.02c.06,0,.13-.03,.16-.1l.35-.71c.04-.09,0-.19-.08-.23-.09-.04-.19,0-.23,.08l-.35,.71c-.04,.09,0,.19,.08,.23Z"/><path class="cls-2" d="M13.4,1.84s.02,0,.04,0c.08,0,.15-.06,.17-.14l.32-1.5c.02-.09-.04-.19-.13-.21-.09-.02-.19,.04-.21,.13l-.32,1.5c-.02,.09,.04,.19,.13,.21Z"/><path class="cls-2" d="M12.26,1.68c.1,0,.17-.08,.17-.17V.72c0-.1-.07-.17-.16-.17s-.17,.08-.17,.17v.8c0,.1,.07,.17,.16,.17Z"/><path class="cls-2" d="M10.81,1.73c.02,.08,.09,.13,.17,.13,.01,0,.03,0,.04,0,.09-.02,.15-.11,.13-.21l-.34-1.49c-.02-.09-.11-.15-.21-.13-.09,.02-.15,.11-.13,.21l.34,1.49Z"/><path class="cls-2" d="M9.19,1.42l.34,.72c.03,.06,.09,.1,.15,.1,.03,0,.05,0,.08-.02,.02,0,.03-.02,.04-.03,.04-.03,.06-.08,.06-.13,0-.02,0-.05-.02-.07l-.34-.72c-.03-.05-.07-.09-.13-.1-.03,0-.07,0-.1,.01-.07,.03-.1,.1-.1,.17,0,.02,0,.04,.02,.06Z"/><path class="cls-2" d="M8.58,2.87s.08,.06,.13,.07c.04,0,.08-.01,.11-.04,.07-.06,.09-.17,.03-.24l-.95-1.2c-.06-.07-.17-.09-.24-.03s-.09,.17-.03,.24l.95,1.2Z"/><path class="cls-2" d="M6.86,3.33l.62,.5h.02s.06,.04,.08,.04c.04,0,.08-.01,.11-.04,0,0,.02-.02,.03-.03,.03-.04,.04-.09,.03-.14,0-.04-.03-.08-.06-.11l-.62-.5s-.04-.03-.06-.03c-.05-.01-.1,0-.14,.02-.01,0-.03,.02-.04,.03,0,0-.01,.02-.02,.03-.04,.07-.02,.16,.05,.21Z"/><path class="cls-2" d="M5.6,4.42l1.39,.63s.05,.02,.07,.02c.07,0,.13-.04,.16-.1,.04-.09,0-.19-.09-.23l-1.39-.63c-.09-.04-.19,0-.23,.09-.04,.09,0,.19,.09,.23Z"/><g><path class="cls-2" d="M7.98,7.88v.48h.42v-.46h1.17v.48h.42v-.45h1.17v.46h.44v-.45h1.17v.46h.44v-.45h1.17v.46h.42v-.44h1.17v.45h.42v-.42h1.17l.11,.43s-.02-.09-.03-.13c0-.06,0-.12,0-.17,.01-1.62-.62-3.14-1.59-4.2-.99-1.08-2.33-1.72-3.76-1.73-1.53-.01-2.87,.6-3.89,1.66-1.01,1.04-1.65,2.54-1.66,4.17,0,.02,0,.05,0,.07l.06-.23h1.17Zm.6-3.84c1-1.05,2.29-1.6,3.72-1.59,1.35,.01,2.62,.6,3.59,1.66,.85,.93,1.38,2.16,1.5,3.44-.18-.45-.42-.91-.75-1.36-.32-.44-.65-.8-.98-1.08-.15-.12-.29-.23-.44-.33-.26-.17-.51-.3-.75-.39-.07-.03-.14-.05-.21-.07-.03-.01-.07-.02-.1-.03-.07-.02-.13-.04-.2-.05-.13-.03-.26-.05-.38-.06-.06,0-.12,0-.18-.01-.03,0-.06,0-.09,0-.1,0-.2,0-.29,.01-.27,.03-.54,.04-.81,.04-.27,0-.54-.02-.81-.05-.09-.01-.19-.02-.29-.02-.03,0-.06,0-.09,0-.06,0-.12,0-.18,0-.12,0-.25,.03-.38,.05-.07,.01-.13,.03-.2,.05-.03,0-.07,.02-.1,.03-.07,.02-.14,.04-.21,.07-.25,.09-.5,.21-.76,.38-.15,.09-.3,.2-.45,.32-.34,.27-.67,.62-1,1.06-.31,.42-.55,.84-.74,1.26,.16-1.27,.7-2.45,1.55-3.32Z"/><path class="cls-2" d="M6.71,8.45v-.42c.01-1.59,.62-3.12,1.67-4.2,1.05-1.11,2.41-1.69,3.92-1.68,1.43,.01,2.77,.63,3.79,1.74,1.03,1.13,1.61,2.67,1.6,4.23,0,.06,0,.11,0,.17,.01,.04,.02,.08,.03,.13l-.09,.02-.1-.39h-1.09v.42h-.52v-.45h-1.07v.43h-.52v-.46h-1.07v.44h-.54v-.46h-1.07v.44h-.54v-.46h-1.07v.44h-.52v-.47h-1.07v.46h-.52v-.48h-1.08l-.14,.53Zm9.3-.07h.33v-.42h1.25v.03c-.02-1.49-.59-2.95-1.57-4.02-1-1.09-2.33-1.7-3.73-1.72-1.48-.01-2.82,.56-3.85,1.65-.99,1.02-1.58,2.44-1.64,3.93h1.22v.49h.33v-.46h1.26v.48h.33v-.45h1.26v.46h.35v-.45h1.26v.46h.35v-.45h1.26v.46h.33v-.44h1.26v.45Zm1.45-.55l-.12-.29c-.19-.47-.44-.92-.74-1.35-.3-.42-.63-.78-.97-1.07-.14-.12-.29-.23-.44-.33-.24-.16-.49-.29-.74-.39-.07-.03-.14-.05-.2-.07-.03-.01-.07-.02-.1-.03-.07-.02-.13-.04-.2-.05-.12-.03-.25-.05-.37-.06-.06,0-.12,0-.17-.01-.03,0-.06,0-.08,0h0c-.1,0-.19,0-.28,.01-.27,.03-.55,.04-.82,.04-.27,0-.55-.02-.82-.05-.09-.01-.18-.02-.28-.02h-.03s-.04,0-.05,0c-.06,0-.11,0-.17,0-.12,0-.25,.03-.37,.05-.06,.01-.13,.03-.2,.05-.03,0-.07,.02-.1,.03-.07,.02-.14,.04-.21,.07-.25,.09-.51,.22-.75,.38-.15,.1-.3,.2-.44,.32-.35,.29-.68,.64-.99,1.05-.29,.39-.54,.81-.73,1.25l-.12,.28,.04-.31c.16-1.28,.71-2.47,1.56-3.35,1.01-1.06,2.31-1.62,3.75-1.6,1.36,.01,2.65,.6,3.62,1.67,.85,.93,1.39,2.16,1.51,3.46l.03,.31Zm-4.11-3.74h.06c.06,0,.12,0,.18,.01,.13,.01,.25,.03,.38,.06,.07,.01,.13,.03,.2,.05,.03,0,.07,.02,.1,.03,.07,.02,.14,.05,.21,.07,.26,.1,.52,.23,.76,.4,.15,.1,.3,.21,.44,.33,.35,.3,.68,.66,.99,1.09,.25,.34,.46,.7,.63,1.08-.17-1.16-.68-2.26-1.45-3.1-.96-1.05-2.22-1.63-3.56-1.64-1.42-.01-2.69,.53-3.68,1.58h0c-.77,.79-1.29,1.85-1.49,3,.17-.34,.37-.67,.61-.99,.31-.42,.65-.78,1.01-1.07,.15-.12,.3-.23,.45-.33,.25-.16,.51-.29,.77-.38,.07-.03,.14-.05,.21-.07,.03-.01,.07-.02,.1-.03,.07-.02,.14-.03,.2-.05,.13-.03,.26-.04,.38-.05,.06,0,.12,0,.18,0,.03,0,.06,0,.09,0h0c.1,0,.2,0,.29,.02,.27,.03,.54,.05,.81,.05,.27,0,.54-.01,.81-.04,.09,0,.19-.01,.29-.01h.04Z"/></g><path class="cls-2" d="M13.16,10.13c.01-.25,.17-.46,.39-.55v-.26h-.35v-.45h-.44v.45h-.32c.18,.32,.42,.6,.72,.82Z"/><path class="cls-2" d="M11.91,9.3h-.32v-.45h-.44v.44h-.36v.24c.23,.09,.38,.32,.38,.58h0c.3-.21,.55-.49,.73-.81Z"/><path class="cls-2" d="M6.7,8.31v0Z"/><path class="cls-2" d="M11.44,15.27l.3,.12c.07,.03,.16-.03,.18-.1,.02-.08-.03-.15-.1-.18l-.3-.12c-.07-.03-.16,.03-.18,.1-.02,.08,.03,.15,.1,.18Z"/><path class="cls-2" d="M12.52,15.4l.3-.12c.07-.03,.12-.1,.1-.18-.02-.07-.1-.13-.18-.1l-.3,.12c-.07,.03-.12,.1-.1,.18,.02,.07,.1,.13,.18,.1Z"/><path class="cls-2" d="M12.98,12.69s-.03,.07-.03,.11c0,.04,.02,.07,.05,.09,.02,.02,.05,.03,.08,.03,.04,0,.09-.02,.11-.06,.06-.08,.17-.17,.29-.26,.09,.24,.33,.4,.59,.41,.35,0,.65-.28,.65-.64,0-.02,0-.03,0-.05,.48,.11,.55,.41,.56,.42,.02,.08,.09,.13,.17,.11,.08-.01,.13-.09,.11-.17,0-.02-.11-.53-.84-.66-.72-.13-1.49,.3-1.76,.65Z"/><path class="cls-2" d="M10.96,12.73c.08,.07,.18,.12,.28,.13h.04c0-.14-.06-.27-.16-.36-.34-.31-.98-.61-1.58-.51-.73,.12-.85,.62-.85,.65-.03,.18,0,.17,.11,.17,.04,0,.08,0,.11-.02,.03-.02,.05-.05,.06-.09,.01-.04,.08-.31,.56-.41,0,.02,0,.03,0,.05,0,.35,.28,.65,.64,.65,.27,0,.5-.16,.6-.4,.07,.05,.14,.1,.19,.15Z"/><path class="cls-2" d="M13.36,16.39c-.21-.05-.56-.23-.75-.33-.1-.05-.13-.07-.14-.07-.06-.01-.16,0-.2,.05-.05,.06-.09,.07-.14,.07-.05,0-.1-.01-.14-.07-.04-.06-.14-.07-.2-.05-.02,0-.04,.01-.15,.07-.19,.09-.55,.27-.75,.31-.06,.01-.12,.03-.17,.06h0l.1,.07s.7,.32,1.31,.18c.61,.15,1.29-.15,1.32-.16l.11-.06h0c-.05-.04-.11-.06-.17-.07Z"/><path class="cls-2" d="M12.73,16.87c-.64,.58-1.21,.02-1.23,0-.06-.06-.15-.06-.2,0-.06,.06-.06,.15,0,.2,.01,.01,.35,.35,.83,.35,.28,0,.55-.11,.8-.33,.06-.05,.06-.14,.01-.2-.05-.06-.14-.06-.2-.01Z"/><path class="cls-2" d="M24.32,8.86c-.09-.24-.31-.41-.55-.45,.14-.24,.19-.53,.09-.8-.13-.36-.46-.54-.81-.52,.13-.33,.11-.68-.27-.9-.41-.23-.88,.07-1.15,.38-.38,.44-.69,.9-1.12,1.3-.29,.27-.61,.52-.93,.76,.11-.21,.23-.43,.34-.65,.21-.4,.49-.78,.63-1.21,.13-.32,.22-.76-.09-1.02-.16-.13-.36-.15-.54-.09-.12-.47-.7-.63-1.06-.31-.12-.12-.28-.2-.46-.17-.29,.04-.5,.27-.51,.56-.02,.44,.14,.88,.13,1.33-.01,.49-.13,.96-.33,1.4h0c.02,.07,.07,.33,.08,.44h-.15l-.06,.47h-.35v.24c.23,.09,.38,.32,.38,.58,0,.34-.28,.62-.63,.62s-.62-.28-.62-.63c0-.26,.17-.48,.39-.57v-.24h-.35v-.48h-.42v.46h-.36v.25c.23,.09,.38,.32,.38,.58,0,.34-.28,.62-.63,.62s-.62-.28-.62-.63c0-.26,.17-.48,.39-.57v-.25h-.35v-.46h-.42v.45h-.36v.26c.22,.09,.38,.32,.38,.58,0,.16-.06,.31-.16,.41,.33,.07,.67,.13,.98,.26-.73-.05-1.49,.18-2.02,.68-.14,.13,.07,.33,.2,.21,.55-.52,1.41-.72,2.15-.55,.06,.01,.11,0,.14-.05,.41,.35,.63,.9,.68,1.44,.05,.63-.11,1.27-.33,1.87-.37,1.03-.9,2-1.55,2.88-.28,.37-.58,.74-.95,1.01-.34,.25-.92,.42-1.37,.43h-.03s-.04,0-.05,0c-.02,0-.04,0-.05,0h-.03c-.45-.02-1.03-.2-1.36-.45-.37-.28-.66-.65-.93-1.03-.63-.89-1.14-1.87-1.5-2.9-.21-.6-.36-1.24-.29-1.87,.06-.54,.3-1.09,.71-1.43,.03,.05,.08,.1,.16,.08,.73-.16,1.58,.03,2.13,.56,.13,.13,.34-.07,.21-.2-.54-.53-1.34-.76-2.09-.69,.34-.15,.71-.2,1.08-.27-.11-.11-.18-.27-.18-.44,0-.26,.17-.48,.39-.57v-.24h-.35v-.45h-.42v.43h-.36v.25c.23,.09,.38,.32,.38,.58,0,.34-.28,.62-.63,.62s-.62-.28-.62-.63c0-.26,.17-.48,.39-.57v-.25h-.35v-.44h-.42v.42h-.36v.26c.22,.09,.38,.32,.38,.58,0,.34-.28,.62-.63,.62s-.62-.28-.62-.63c0-.26,.17-.48,.39-.57v-.26h-.35l-.05-.43h-.15c.01-.09,.09-.41,.1-.45-.19-.44-.3-.91-.3-1.4,0-.45,.16-.88,.15-1.33,0-.29-.21-.52-.5-.56-.18-.02-.34,.05-.46,.17-.35-.33-.94-.18-1.06,.29-.18-.06-.38-.06-.54,.08-.32,.26-.23,.69-.11,1.02,.14,.43,.4,.82,.61,1.23,.11,.22,.22,.44,.33,.65-.31-.23-.6-.48-.88-.74-.43-.41-.75-.9-1.13-1.35-.26-.31-.7-.6-1.11-.42-.41,.19-.44,.56-.32,.91-.35-.02-.68,.15-.82,.51-.11,.27-.07,.57,.07,.81-.24,.04-.45,.2-.55,.43-.19,.46,.06,1,.48,1.23,.58,.32,1.25,.16,1.88,.15,.38,0,.73,.06,1.08,.18,.03,.03,.08,.05,.13,.05,.15,.06,.29,.12,.43,.2-.24,.04-.47,.11-.7,.2-.29,.11-.59,.22-.9,.18-.27-.03-.49-.19-.76-.23-.34-.06-.69,.12-.75,.48-.03,.22,.07,.41,.23,.53-.15,.15-.23,.36-.15,.58,.06,.19,.23,.32,.41,.36-.05,.13-.05,.28,.03,.42,.12,.23,.36,.32,.6,.31-.68,.83-1.03,1.93-1.01,3.01,.03,1.77,.93,3.38,2.16,4.61,.16,.16,.33,.3,.51,.43v.03s.03,.03,.02,0v-.03c.94,.67,2.18,.94,3.33,.87,1.77-.11,3.39-1.06,4.37-2.52,.06,.07,.11,.15,.16,.22,0,0,.01,.02,.02,.02-.52,1.48-1.88,2.59-3.43,2.78-.18,.02-.19,.31,0,.29,1.4-.17,2.64-1,3.35-2.2,.05,.02,.11,.02,.16-.03l.39-.39,.39,.39s.11,.05,.16,.03c.68,1.2,1.91,2.06,3.31,2.26,.18,.03,.18-.26,0-.29-1.55-.22-2.9-1.36-3.39-2.85,.06-.09,.12-.17,.18-.25,.84,1.3,2.19,2.24,3.71,2.53,1.31,.25,2.81,.04,3.95-.69,0,.01,0,.01,0,0,.05-.03,.1-.06,.15-.1,.31-.22,.58-.53,.83-.81,.28-.31,.54-.64,.77-.99,.49-.75,.83-1.59,.97-2.47,.2-1.29-.09-2.66-.89-3.68,.24,.02,.48-.07,.61-.3,.08-.14,.09-.29,.04-.42,.19-.04,.35-.17,.42-.36,.08-.21,0-.43-.14-.58,.16-.11,.26-.29,.24-.5-.04-.38-.39-.57-.74-.52-.24,.04-.44,.17-.68,.21-.32,.06-.64-.06-.93-.17-.25-.1-.49-.19-.75-.23,.14-.08,.29-.14,.43-.19,.05,0,.1-.01,.13-.04,.33-.11,.67-.16,1.03-.16,.64,0,1.33,.2,1.93-.12,.42-.22,.67-.74,.51-1.21Zm-2.4-2.19l.03-.03c-.07,.57-.12,1.14-.19,1.7-.18,.08-.35,.15-.53,.24,0-.34-.02-.69,0-1.03,0,0,0-.01,0-.02,.23-.28,.43-.6,.69-.86Zm-1.08,3.39l-.22-.84c.16-.09,.33-.18,.5-.26l.69,.96c-.33,0-.65,.05-.97,.14Zm.56,1.93h0c.18,.38,.35,.75,.52,1.12-.1-.1-.2-.19-.31-.28-.17-.14-.35-.26-.53-.36l-.21-.59c.18,.03,.35,.07,.52,.11Zm1.4,3.41c-.68-.14-1.36-.22-2.05-.24-.11-.18-.22-.35-.35-.52,.68-.13,1.37-.2,2.06-.22h.02c.14,.31,.25,.64,.31,.97Zm-.38,3.08l-.86-.79c-.01-.18-.03-.35-.06-.53l1.2,.53c-.07,.27-.17,.54-.28,.79Zm-4.57-8.02c.06-.11,.12-.22,.18-.33,0,.15,0,.31,.07,.44,0,.02,0,.04,0,.07-.09,.08-.19,.17-.28,.25,.01-.14,.02-.28,.02-.43Zm2.03-3l-.8,.04c.05-.17,.09-.34,.12-.51,.34-.04,.68-.09,1.01-.17-.09,.22-.21,.42-.33,.63Zm-.16,1.96c.02-.21,.07-.42,.14-.63,0-.01,0-.03,0-.04,.13-.1,.26-.2,.39-.31,0,.21,0,.41,.03,.62-.19,.11-.38,.23-.57,.35Zm-.3,.2c-.15,.1-.29,.2-.43,.31-.02-.25,.06-.5,.24-.7h0l.02-.02c.08-.06,.16-.11,.25-.17-.04,.19-.07,.39-.07,.59Zm1.74,3.23c-.59,.17-1.15,.43-1.67,.78h-.01c-.22-.18-.44-.36-.67-.53,.3-.33,.67-.58,1.08-.75,.45,.08,.89,.25,1.27,.5Zm-2.88-5.44l.43,.29c-.05,.17-.11,.34-.17,.51-.12-.09-.24-.19-.35-.29,.04-.17,.08-.34,.1-.51Zm.08,3.02c-.07-.15-.04-.36-.03-.52,0-.15,.03-.3,.06-.45,.02,0,.04-.02,.06-.03,.01,0,.03,0,.04,0,.1,0,.2-.02,.3-.05-.1,.23-.13,.49-.07,.75-.12,.1-.25,.19-.37,.3Zm-.08,.45c.15,.19,.31,.36,.49,.51-.33,0-.66,0-.98,0v-.07c.16-.15,.32-.3,.49-.44Zm.3,2.05c-.16-.12-.33-.24-.49-.36,.36-.18,.8-.25,1.14-.26,.04,0,.09,0,.13,0-.29,.17-.54,.38-.77,.63Zm-.39-.71l.21-.54c.18,0,.35,0,.53,0l-.09,.37c-.21,.03-.44,.08-.65,.16Zm-.43-.53c.11,0,.22,0,.33,0l-.28,.72c-.06,.03-.11,.07-.16,.11,.03-.26,.07-.53,.11-.81Zm-.19,1.58c0-.1,.02-.2,.03-.3,.06-.09,.14-.16,.23-.23,.16,.12,.32,.23,.47,.35-.25,.05-.49,.13-.73,.23,0-.02,0-.03,0-.05Zm2.18-1.53l.03,.31c-.2-.02-.4-.03-.6-.02h-.03l.08-.33c.17,0,.35,.02,.52,.04Zm-.66-.46c-.23-.17-.42-.36-.59-.58,.11-.1,.23-.19,.35-.28,.13,.2,.3,.32,.5,.38-.1,.16-.19,.32-.26,.49Zm-.04-2.27c-.17,.06-.34,.12-.53,.14,.07-.17,.14-.34,.21-.52h.01s.03,0,.06,0l.47-.02c-.07,.13-.15,.27-.22,.4Zm-.25-1.6l-.49-.33c0-.18,0-.36-.02-.53-.01-.11-.03-.22-.05-.33,.23,.23,.48,.44,.69,.69-.04,.17-.08,.34-.13,.5Zm-.86,1.2c.06-.13,.11-.26,.16-.39,.11,.1,.22,.19,.34,.27-.07,.18-.14,.37-.21,.55-.12-.1-.22-.21-.3-.35,0-.01-.02-.02-.03-.03,.02-.01,.03-.03,.04-.05Zm-.32,4.99c.32-.15,.66-.25,1-.29,.22,.16,.43,.33,.64,.51-.51,.12-.99,.29-1.47,.51-.01,0-.02,.01-.03,.02-.03-.06-.05-.13-.07-.19-.02-.07-.04-.14-.06-.21-.03-.1-.04-.21-.05-.32,.01,0,.03,0,.04-.01Zm.32,.97c.51-.24,1.04-.41,1.58-.52,.02,.02,.03,.03,.05,.05,.14,.14,.27,.28,.39,.43-.59,.18-1.16,.38-1.72,.62-.07-.09-.13-.19-.19-.28-.04-.07-.08-.13-.12-.2-.01-.03-.03-.05-.04-.08,.02,0,.03,0,.05-.01Zm2.22,.2c.13,.17,.24,.34,.35,.51l-1.66,.64h0c-.15-.18-.3-.36-.44-.54,.57-.24,1.15-.44,1.74-.62Zm2.71,.93c.04,.27,.05,.55,.04,.83-.56-.22-1.14-.41-1.73-.56h0s-.03-.08-.05-.12c-.06-.14-.12-.27-.19-.4,.65,.03,1.29,.11,1.92,.25h0Zm-2.21-.16c.05,.09,.1,.19,.15,.28,.04,.08,.07,.16,.11,.24l-1.4,.68h0l-.03-.04s-.06-.07-.08-.11c-.12-.15-.23-.29-.35-.43l1.61-.62Zm.36,.8c.06,.17,.11,.35,.15,.53l-1.14,.65c-.03-.06-.07-.11-.1-.17-.08-.12-.16-.24-.24-.36l1.33-.65Zm.21,.82c.03,.17,.05,.35,.07,.53-.3,.2-.58,.42-.88,.62v-.03c-.04-.07-.07-.14-.1-.21-.05-.1-.1-.2-.15-.3l1.06-.6Zm-.59,1.99v-.05c-.03-.14-.06-.28-.1-.41,0-.03-.02-.07-.03-.1,.27-.18,.53-.38,.8-.57,0,.19,0,.38-.02,.57h0s-.04,.02-.06,.04l-.58,.52Zm.81-2.33c-.04-.17-.09-.35-.15-.52,.54,.15,1.07,.32,1.58,.53,0,.08-.02,.15-.03,.22-.02,.12-.04,.24-.07,.36l-1.34-.59Zm-1.23-2.43c-.12-.14-.25-.28-.38-.42-.04-.04-.09-.09-.13-.13,.54-.36,1.13-.62,1.76-.77,.37,.3,.66,.67,.89,1.07-.72,.02-1.43,.1-2.14,.25Zm.35-2.56l.16,.47c-.21-.09-.43-.16-.66-.2l-.03-.33c.18,.02,.35,.04,.53,.07Zm-1.22-.41c.07-.18,.16-.34,.27-.5,.22-.08,.43-.08,.64-.04l-.53,.57c-.12-.01-.25-.02-.37-.03Zm.48-.88c-.33,.05-.58-.03-.75-.3,.14-.11,.29-.21,.44-.32,.1,.22,.25,.4,.45,.52-.05,.03-.1,.06-.15,.09Zm.44-.25s-.02-.02-.04-.03c-.21-.11-.38-.28-.46-.5,.2-.13,.41-.26,.62-.38l.2,.78c-.11,.04-.21,.09-.32,.14Zm.69-2.44c0,.29,.02,.58,0,.86,0,0,0,0,0,.02-.13,.07-.26,.14-.39,.21-.02-.24-.02-.48,0-.72,.13-.12,.26-.24,.38-.36Zm-1.52,.47l-.6,.03c.06-.18,.12-.36,.18-.54l.71-.04s-.05,.1-.08,.14c-.07,.14-.14,.27-.21,.41Zm-.68-2.67c.06,.09,.19,.1,.25,0,.22-.36,.7-.18,.67,.23-.01,.14,.16,.17,.25,.1,.17-.13,.39-.09,.46,.12,.05,.14,.03,.28-.02,.41-.36,.08-.71,.15-1.08,.19,.03-.17,.06-.34,.08-.52h0v-.02s0-.05,.01-.07c0,0,0,0,0-.01,0-.04,0-.08,0-.12-.02-.07-.08-.31-.08-.31l-.1,.15c-.05,.09-.08,.18-.09,.28v.02c-.02,.15-.05,.31-.07,.46-.26-.28-.57-.52-.81-.82h0c.01-.34,.41-.33,.55-.1Zm-1.01,3h0Zm.38,.67c-.08,.18-.16,.35-.24,.52,0-.27-.03-.55-.07-.83,.09,.12,.2,.22,.31,.31Zm-2.85,7.17c-.2,1.71,2.33,2.12,3.26,2.05,2.19-.16,2,.87,1.99,1.64,0,.35-.09,.96-.36,1.16,.02-.01,.05-.02,.07-.04-.04,.02-.07,.05-.11,.07h0s.03-.02,.04-.03l-.04,.02c-.82-1.76-2.67-3-4.59-3.05-1.26-.2-.79-.88-.25-1.81Zm4,5.24l-.12-.38c.13,.07,.28,.11,.43,.1-.07-.13-.16-.25-.28-.34l.3-.12c.1,.17,.19,.34,.27,.51-.19,.09-.39,.17-.58,.23h-.01Zm-.79,.2l-.12-1.07c.14,.08,.27,.16,.41,.25v.02l.23,.7c-.17,.05-.34,.08-.51,.11Zm-2.75-.23c-.18-.06-.35-.14-.52-.22,.31-.53,.59-1.08,.83-1.64,.13,.04,.26,.08,.39,.13v.02l-.69,1.66s-.01,.04-.01,.05Zm-1.16-.59l.88-1.44c.11,.03,.21,.06,.32,.09-.24,.54-.51,1.07-.81,1.59-.13-.07-.26-.15-.39-.24Zm-.64-.5l.88-1.06h0c.11,0,.23,.03,.34,.06l-.82,1.34c-.14-.11-.28-.22-.41-.34Zm-.96-1.15s.1-.09,.15-.13c.22,.01,.43,.03,.64,.05l-.53,.47c-.09-.12-.18-.25-.27-.39Zm-1.95,.37l-.52-.48c.21-.02,.41-.03,.62-.04,.06,.05,.11,.1,.16,.15-.08,.13-.17,.25-.27,.37Zm-1.13,1.07l-.79-1.34c.11-.02,.23-.05,.34-.07h0l.86,1.08c-.13,.11-.27,.22-.42,.32Zm-.63,.39c-.29-.51-.54-1.04-.77-1.59,.11-.03,.21-.05,.32-.08l.85,1.44c-.13,.08-.26,.16-.39,.23Zm-1.67,.56l-.3-1.73s0-.02,0-.03c.09-.03,.17-.06,.26-.1h0l.65,1.67s.01,.03,.02,.04c-.21,.06-.42,.11-.63,.14Zm-3.23-.49c.21-.43,.47-.82,.78-1.17l.52,.35c-.22,.13-.45,.26-.66,.4-.15,.1-.27,.23-.35,.38,.17,.01,.33-.03,.47-.12,.25-.16,.5-.31,.75-.45l-.14,1.09c-.47-.09-.93-.25-1.37-.48Zm1.44-1.78h0l.54,.61c-.13,.06-.27,.13-.4,.2l-.6-.4c.14-.14,.3-.28,.45-.4Zm.21,2.29l.17-1.28h0c.11-.06,.22-.12,.33-.17v1.5c-.16,0-.34-.02-.51-.04h0Zm.6-1.83l-.59-.65c.25-.17,.51-.32,.78-.44l.18,.93c-.13,.05-.25,.1-.37,.16Zm2.64-.82c.14-.21,.29-.4,.46-.58,.1,.02,.2,.04,.29,.07l-.39,.45c-.12,.02-.24,.04-.36,.06Zm-.4-.68c.17,0,.35,.01,.52,.04-.19,.22-.36,.47-.51,.72-.12,.03-.25,.06-.37,.09,.07-.3,.19-.58,.36-.85Zm-.34,0c-.16,.29-.28,.6-.33,.92-.13,.04-.25,.07-.38,.12,.02-.33,.09-.67,.18-.98,.17-.03,.35-.04,.52-.05Zm-1,1.14c-.08,.03-.17,.06-.25,.09l-.18-.93h0c.19-.08,.39-.14,.59-.18-.09,.33-.15,.68-.16,1.02Zm.96,1.89l-.65-1.67v-.02c.12-.04,.25-.08,.38-.12,.23,.56,.5,1.1,.79,1.63-.17,.08-.34,.15-.51,.21,0-.01,0-.02,0-.03Zm1.82-2.77h0c.16,.06,.31,.13,.45,.22-.24,.02-.47,.04-.7,.07l.25-.29Zm6-.13c.09,.32,.15,.65,.17,.99-.12-.04-.25-.08-.38-.12-.05-.33-.15-.64-.31-.93,.17,.01,.33,.03,.49,.06h.03Zm-1.64,.53l-.38-.46c.1-.03,.2-.05,.29-.07,.17,.18,.32,.39,.45,.6-.12-.02-.24-.05-.36-.07Zm.75,.16c-.14-.26-.31-.5-.5-.73,.17-.02,.35-.03,.52-.03,.17,.27,.29,.55,.35,.85-.12-.03-.25-.07-.37-.1Zm-1.9-.3c.15-.09,.31-.16,.47-.22h0l.24,.3c-.24-.03-.48-.06-.72-.08Zm3.25,.72c0-.34-.06-.69-.14-1.02,.2,.05,.39,.11,.58,.19h0l-.19,.93c-.08-.03-.16-.06-.25-.09Zm.71-.72c.27,.13,.53,.28,.77,.45l-.6,.64c-.12-.06-.25-.11-.37-.17l.19-.93Zm1.56,1.86c-.14-.09-.29-.18-.43-.27l.52-.34c.12,.14,.23,.28,.33,.43l-.42,.17Zm-.71-.43c-.13-.07-.26-.14-.39-.21l.55-.59h0c.16,.13,.31,.26,.45,.41l-.61,.39Zm-.57,.03c.11,.06,.22,.11,.33,.17h0l.15,1.28h0c-.17,.02-.34,.04-.52,.04l.04-1.5Zm-8.71-4.08c.03,.08,.09,.19,.17,.31,.48,.87,.71,1.45-.86,1.53,.03,0,.06,0,.1,0-1.05,.09-2.09,.5-2.86,1.1-.63,.49-1.13,1.13-1.48,1.85-.02-.01-.05-.03-.07-.05-.25-.22-.32-.8-.32-1.14,0-.77-.17-1.8,2.02-1.6,.92,.08,3.46-.28,3.29-1.99Zm-7.08,2.15h.02l.71-.65c0,.18,0,.36,.02,.54l-.45,.67c-.11-.18-.21-.37-.3-.56Zm-.39-1.07l1.21-.51c-.03,.17-.06,.35-.07,.53l-.87,.78c-.11-.26-.2-.52-.27-.8Zm.27-3.26h.02c.69,.03,1.38,.11,2.06,.25-.13,.16-.25,.33-.36,.51-.69,.01-1.37,.08-2.05,.2,.07-.34,.18-.66,.33-.97Zm1.13-2.41h0c.17-.05,.35-.08,.52-.11l-.22,.59s-.04,.02-.06,.03c-.29,.16-.55,.36-.78,.59,.18-.37,.36-.74,.54-1.1Zm-.37-2.09l.7-.95c.17,.09,.33,.18,.5,.27l-.23,.83c-.31-.09-.63-.14-.96-.16Zm1.65-3.05c.33,.08,.67,.14,1.01,.18,.03,.17,.07,.34,.11,.51l-.8-.06c-.12-.21-.23-.42-.32-.64Zm2.25,1.82s.02,.04,.04,.05c-.01,0-.02,.02-.03,.03-.08,.13-.19,.25-.3,.34-.07-.18-.14-.37-.21-.55,.12-.08,.24-.17,.35-.26,.04,.13,.09,.26,.15,.39Zm.03,1.83c0,.15,0,.29,.01,.44-.09-.08-.17-.16-.26-.24,0-.02,0-.05,0-.07,.06-.13,.08-.29,.08-.44,.05,.11,.11,.21,.16,.31Zm-2.58,7.58c-.03,.07-.06,.13-.09,.2v.03c-.3-.2-.58-.43-.87-.63,.02-.18,.04-.35,.08-.52l1.04,.62c-.05,.1-.11,.2-.16,.31Zm-.82-2.11c-.59,.14-1.17,.32-1.73,.53,0-.28,0-.55,.05-.83h0c.64-.12,1.28-.2,1.93-.21-.07,.13-.14,.26-.2,.4-.02,.04-.03,.08-.05,.12h0Zm1.22,1.4c-.03,.05-.07,.11-.1,.16l-1.12-.66c.05-.18,.1-.35,.16-.52l1.31,.67c-.09,.12-.17,.24-.25,.36Zm.46-.63l-.03,.04-1.38-.7c.04-.08,.07-.16,.11-.24,.05-.1,.1-.19,.15-.28l1.59,.65c-.12,.14-.24,.28-.36,.43-.03,.04-.06,.07-.09,.11Zm.64-.77l-1.64-.67c.11-.18,.23-.35,.36-.51,.59,.18,1.16,.4,1.72,.64-.14,.18-.29,.35-.45,.53Zm.63-.77c-.56-.25-1.12-.46-1.7-.65,.13-.15,.26-.29,.4-.42,.02-.02,.03-.03,.05-.04,.55,.12,1.07,.3,1.58,.55,.01,0,.03,.01,.04,.01-.01,.03-.03,.05-.04,.08-.04,.07-.08,.13-.12,.2-.06,.09-.13,.18-.19,.28Zm-1.23-1.54c-.51-.36-1.06-.63-1.65-.81,.39-.24,.82-.41,1.28-.48,.41,.18,.77,.44,1.07,.77-.23,.17-.46,.34-.68,.53h-.01Zm.3-1.94l.07,.33c-.21-.02-.42-.01-.63,0l.04-.31c.17-.01,.35-.02,.52-.03Zm1.02-4.27c.02,.17,.05,.34,.09,.51-.11,.1-.23,.2-.36,.29-.06-.17-.11-.34-.16-.52l.43-.28Zm-.19,4.27l.2,.55c-.22-.09-.45-.14-.65-.18l-.08-.37c.18,0,.35,0,.53,0Zm.3,.9c-.17,.12-.34,.24-.5,.35-.22-.25-.48-.47-.76-.64,.38,0,.88,.09,1.26,.29Zm.26,.17c.08,.06,.15,.14,.21,.22,.01,.11,.02,.22,.02,.32v.04c-.23-.11-.47-.19-.71-.24,.16-.11,.32-.23,.48-.34Zm.01-.33l-.27-.73c.11,0,.22,0,.32,.01,.03,.28,.06,.55,.09,.81-.05-.03-.09-.07-.14-.1Zm.03-1c-.32-.01-.64-.02-.97-.02,.19-.15,.35-.32,.5-.5,.16,.14,.31,.29,.46,.44v.09Zm-.65-1.98s.03,0,.04,0c.02,.01,.03,.03,.06,.03,.03,.15,.05,.3,.06,.45,0,.15,.03,.36-.04,.51-.12-.1-.24-.2-.36-.3,.06-.25,.04-.51-.05-.75,.1,.02,.19,.04,.3,.05Zm-.36,.97c.12,.1,.23,.19,.34,.29-.17,.22-.37,.41-.6,.57-.07-.17-.15-.34-.25-.49,.2-.05,.38-.17,.51-.37Zm1.01,3.95h-.02c-.47-.24-.95-.42-1.46-.54,.21-.17,.42-.34,.65-.5,.35,.05,.68,.15,1,.31,.01,0,.02,0,.03,.01-.01,.11-.03,.22-.06,.32-.02,.07-.04,.14-.07,.21-.02,.06-.05,.12-.08,.19Zm-.38-7.8c-.02,.18-.03,.35-.03,.53l-.49,.32c-.04-.17-.09-.34-.12-.5,.21-.25,.47-.45,.7-.68-.02,.11-.05,.22-.06,.33Zm-.54,2.07s.04,0,.06,0h.01c.06,.18,.13,.35,.2,.53-.18-.02-.36-.08-.53-.14-.07-.13-.15-.27-.22-.4l.47,.03Zm-.47,.57h.02v.02c.18,.2,.25,.45,.23,.71-.14-.11-.28-.21-.43-.31,0-.2-.02-.4-.06-.59,.08,.06,.16,.12,.24,.18Zm-.6-.42c.07,.21,.11,.41,.13,.63-.19-.12-.37-.24-.56-.36,.03-.21,.04-.41,.04-.62,.13,.11,.26,.21,.39,.31,0,.01,0,.03,0,.04Zm-.52,.55c.21,.13,.41,.26,.61,.4-.09,.22-.25,.39-.47,.49-.02,0-.03,.02-.04,.03-.1-.05-.21-.1-.31-.14l.22-.77Zm.85,.56c.15,.11,.29,.21,.43,.32-.17,.27-.42,.34-.75,.29-.05-.03-.1-.07-.15-.1,.2-.12,.36-.3,.46-.52Zm-.11,.99c.1,.16,.19,.33,.26,.51-.12,0-.25,.01-.37,.02l-.52-.58c.2-.03,.41-.03,.64,.06Zm-.49,1.17c-.22,.04-.45,.11-.66,.19l.17-.46c.17-.02,.35-.04,.53-.06l-.04,.33Zm-1.69,1.2c.09-.09,.19-.17,.29-.25,.63,.17,1.21,.44,1.75,.8-.05,.04-.09,.08-.14,.13-.13,.13-.26,.27-.38,.41-.7-.16-1.42-.25-2.14-.28,.17-.29,.38-.56,.62-.8Zm-1.19,3.48c.52-.2,1.05-.36,1.59-.5-.06,.17-.11,.34-.16,.52l-1.35,.57c-.04-.19-.07-.39-.08-.58Zm1.57,1.8h0c-.01-.19-.02-.38-.01-.57,.26,.19,.51,.39,.78,.57-.01,.04-.02,.07-.03,.11-.04,.13-.07,.27-.1,.41v.04l-.57-.52s-.04-.03-.06-.03Zm3.56-8.72c-.08-.17-.15-.33-.22-.5,.11-.08,.22-.18,.3-.29-.04,.27-.07,.53-.08,.79Zm-2.42-3.76c.09-.19,.3-.25,.47-.11,.09,.07,.25,.04,.25-.1-.02-.41,.46-.58,.67-.22,.06,.09,.19,.09,.25,0,.15-.23,.55-.24,.55,.1h0c-.25,.3-.56,.54-.83,.81-.03-.15-.05-.31-.06-.46v-.02c-.01-.1-.04-.19-.09-.28l-.1-.15s-.07,.24-.09,.31c-.01,.04-.01,.08-.01,.12,0,0,0,0,0,.01,0,.02,0,.05,0,.07v.02h0c.02,.17,.04,.34,.07,.52-.36-.05-.72-.12-1.07-.21-.05-.14-.08-.28-.01-.41Zm.62,1.67l.71,.05c.05,.18,.11,.36,.17,.54l-.6-.04c-.07-.14-.14-.27-.21-.41-.02-.05-.05-.1-.08-.15Zm-.86,.42c.02,.24,.01,.48-.01,.72-.13-.07-.26-.14-.39-.21,0,0,0,0,0-.01,0-.29,.02-.58,.02-.86,.12,.13,.25,.25,.38,.37Zm-.66-.69s0,.01,0,.02c0,.34-.02,.69-.03,1.03-.17-.09-.35-.17-.52-.25-.06-.57-.1-1.14-.16-1.71l.03,.03c.26,.26,.45,.59,.68,.87ZM.45,9.43c-.15-.18-.23-.5-.11-.71,.11-.2,.38-.31,.58-.18,.16,.1,.3-.14,.15-.25-.24-.17-.36-.49-.26-.77,.13-.34,.46-.4,.77-.28,.12,.04,.23-.11,.16-.21-.16-.27-.29-.68,.12-.79,.1-.03,.2-.01,.3,.03,0,.01,0,.02,0,.04,.06,.58,.1,1.17,.16,1.75-.19-.08-.39-.16-.58-.23h0c-.1-.04-.2-.05-.3-.05l-.18,.02s.18,.17,.24,.21c.05,.04,.1,.06,.16,.09h0l.03,.02h0c.17,.06,.33,.13,.5,.19-.42,.5-.87,.96-1.35,1.39-.15-.05-.28-.14-.38-.26Zm.73,.34c.45-.41,.87-.85,1.26-1.32,0,0,.01-.02,.02-.03,.18,.08,.35,.16,.52,.25l-.8,1.08c-.08,0-.17,0-.25,.01-.23,.02-.5,.04-.75,.01Zm2.6,1.04h0l.47,.53c-.18,.02-.37,.04-.55,.06l-.51-.39c.2-.06,.39-.14,.58-.2Zm-1.05,.31s.08-.01,.11-.02h0l.46,.36c-.19,.03-.37,.07-.56,.11-.21-.15-.41-.33-.59-.52,.18,.06,.36,.09,.57,.07Zm-.9,1.38c.11-.09,0-.29-.14-.24-.41,.15-.58-.45-.14-.53,.16-.03,.12-.28-.04-.28-.21,0-.37-.26-.24-.44,.09-.12,.23-.14,.36-.11h0c.22,.29,.47,.55,.75,.78-.06,.02-.13,.03-.19,.05-.1,.03-.19,.08-.27,.14l-.13,.13s.25,.03,.32,.03,.15-.02,.22-.04c.07-.02,.13-.04,.2-.05-.18,.36-.35,.71-.52,1.07-.28,0-.49-.26-.19-.49Zm.61,7.04s-.05-.08-.08-.12l.33-.5c.05,.33,.13,.66,.25,.97,.06,.16,.17,.29,.32,.37v-.09c.02-.11,0-.22-.03-.32-.12-.32-.21-.65-.26-.99l.48,.44s.04,.03,.06,.03c-.01,.15-.02,.31-.02,.47h0c0,.35,.04,.72,.13,1.12-.46-.38-.86-.91-1.18-1.38Zm4.33,2.39v-1.63c.06-.03,.13-.06,.2-.09l.29,1.69c-.16,.02-.33,.03-.49,.03Zm3.71-1.54l-.76-.94c.13-.02,.25-.04,.38-.05,0,.02,.02,.04,.04,.05l.65,.6h.01c-.1,.12-.21,.23-.32,.34Zm1.33-.12s.03-.07,.04-.11l.03,.03-.08,.08Zm.49-.07l.03-.03s.03,.07,.04,.11l-.08-.08Zm1.09-.12h.01l.66-.6s.03-.03,.04-.05c.13,.02,.25,.04,.38,.06l-.78,.94c-.11-.11-.21-.22-.31-.34Zm2.57,1.72s.03-.03,.04-.06l.68-1.66h0c.09,.03,.17,.07,.26,.1,0,0,0,.02,0,.03l-.33,1.74c-.22-.04-.43-.09-.64-.15Zm.93,.19l.32-1.69c.07,.03,.14,.06,.21,.09l-.04,1.63c-.13,0-.27-.01-.4-.02-.03,0-.06,0-.09-.01Zm3.65-.93h0c.09-.39,.14-.76,.15-1.11h0c0-.16,0-.31-.01-.46,.02,0,.05-.02,.07-.04l.48-.43c-.06,.34-.15,.67-.28,.99-.04,.1-.05,.21-.04,.32v.09c.16-.08,.27-.21,.33-.37,.12-.31,.21-.64,.26-.97l.32,.5c-.37,.54-.81,1.03-1.28,1.47Zm1.46-1.73l-.43-.67c.02-.18,.03-.36,.03-.54l.7,.65h.02c-.09,.2-.2,.39-.31,.57Zm.99-8.19c.22,.16,.11,.49-.17,.5-.16,0-.21,.25-.04,.28,.43,.09,.26,.68-.15,.53-.13-.05-.25,.15-.14,.24,.3,.23,.07,.48-.2,.49-.17-.36-.34-.72-.5-1.08,.07,.02,.13,.04,.2,.06,.07,.02,.15,.04,.22,.04s.32-.02,.32-.02l-.13-.13c-.08-.07-.17-.12-.27-.15-.06-.02-.13-.04-.19-.06,.28-.22,.54-.47,.77-.76h0c.1-.02,.2,0,.29,.06Zm-.82,.1c-.18,.19-.38,.35-.6,.5-.18-.04-.37-.08-.56-.12l.47-.35h0s.08,.01,.11,.02c.21,.03,.39,0,.57-.05Zm-1.03-.06l-.52,.38c-.18-.03-.36-.05-.55-.07l.48-.52h0c.19,.06,.38,.14,.58,.21Zm1.29-1.23c-.08,0-.17-.01-.25-.02l-.78-1.09c.17-.08,.35-.16,.53-.24,0,0,.01,.02,.02,.03,.38,.48,.79,.92,1.24,1.34-.26,.02-.53,0-.75-.03Zm1.49-.3c-.11,.13-.24,.21-.39,.26-.48-.44-.92-.91-1.33-1.41,.17-.07,.33-.13,.5-.19h.04c.06-.04,.12-.07,.16-.1,.06-.04,.24-.21,.24-.21l-.18-.03c-.1,0-.21,0-.3,.04h0c-.2,.07-.39,.14-.59,.22,.07-.58,.12-1.17,.19-1.75,0-.01,0-.03,0-.04,.1-.04,.2-.06,.3-.03,.41,.12,.27,.53,.1,.8-.06,.1,.04,.25,.16,.21,.31-.1,.65-.04,.77,.3,.1,.29-.02,.61-.27,.77-.15,.1-.02,.35,.14,.25,.2-.12,.47-.02,.57,.19,.11,.22,.02,.54-.13,.71Z"/></g></g></svg>