<?xml version="1.0" encoding="UTF-8"?><svg id="Capa_2" xmlns="http://www.w3.org/2000/svg" viewBox="0 0 131.64 124.63"><defs><style>.cls-1{fill:none;}.cls-2{fill:#056734;}</style></defs><g id="Capa_1-2"><g><path class="cls-1" d="M111.05,48.24c.7-.38,1.4-.75,2.11-1.11,0-.03,0-.05,0-.08,.03-1.56-.03-3.11-.05-4.66-.66,.68-1.36,1.32-2.06,1.95-.11,1.31-.12,2.61,0,3.91Z"/><path class="cls-1" d="M102.6,42.16c-.29,.98-.61,1.95-.95,2.91,1.07-.05,2.15-.09,3.22-.14,.38-.73,.77-1.46,1.15-2.2,.14-.26,.28-.52,.43-.78-1.28,.07-2.57,.14-3.85,.2Z"/><path class="cls-1" d="M110,50.62c-1.13,.66-2.24,1.36-3.33,2.08,.46,1.19,1.33,2.11,2.49,2.69,.1,.05,.17,.11,.23,.17,.57-.28,1.14-.52,1.71-.74-.37-1.4-.73-2.8-1.1-4.2Z"/><path class="cls-1" d="M98.22,31.02c1.32,1.61,2.96,2.91,4.38,4.42,.15-.82,.28-1.65,.38-2.48,0-.03,.01-.06,.02-.09,.07-.53,.24-1.05,.49-1.52l.55-.8s.35,1.3,.45,1.68c.06,.24,.06,.46,.05,.67,0,.03,0,.05,0,.08-.01,.13-.04,.26-.05,.39,0,.03,0,.06-.01,.1h0c-.12,.93-.26,1.86-.44,2.78,1.95-.25,3.89-.59,5.81-1.03,.25-.73,.4-1.48,.11-2.24-.42-1.11-1.61-1.35-2.51-.65-.48,.37-1.38,.19-1.32-.56,.16-2.2-2.41-3.16-3.61-1.24-.31,.5-1.04,.49-1.34-.01-.78-1.28-2.93-1.31-2.98,.47,0,.01,0,.02,0,.03,0,0,.01,.01,.02,.02Z"/><path class="cls-1" d="M105.36,53.58c-.8,.55-1.59,1.12-2.37,1.7,.89,1.45,2.26,1.88,4.03,1.64,.26-.18,.53-.35,.8-.51-1.09-.68-1.93-1.67-2.46-2.83Z"/><path class="cls-1" d="M105.67,113.37l-1.61,.66c.63,.5,1.15,1.13,1.51,1.85-.81,.05-1.61-.13-2.3-.53,.22,.69,.44,1.39,.66,2.08,.02,0,.05-.02,.07-.02,1.02-.34,2.1-.75,3.14-1.25-.44-.95-.94-1.88-1.48-2.77Z"/><path class="cls-1" d="M83.7,98.88c10.38,.28,20.39,6.96,24.81,16.49,.07-.03,.14-.07,.22-.11,1.45-1.09,1.94-4.36,1.96-6.26,.04-4.17,1.09-9.71-10.75-8.85-4.97,.36-18.65-1.83-17.59-11.06-2.94,5.06-5.48,8.71,1.35,9.79Z"/><path class="cls-1" d="M108.53,115.43c.2-.12,.4-.24,.59-.36-.14,.07-.28,.13-.4,.19-.07,.05-.14,.1-.21,.14v.03Z"/><path class="cls-1" d="M97.76,50.37c-.64-.48-1.2-1.04-1.69-1.67,.21,1.52,.33,3.02,.38,4.49,.46-.93,.9-1.87,1.31-2.82Z"/><path class="cls-1" d="M95.73,46.73v.02h.01v-.02Z"/><path class="cls-1" d="M44.09,106.84c-.71,.21-1.42,.43-2.13,.66,.02,.03,.04,.07,.05,.1,1.18,3,2.35,6.01,3.53,9.01,.02,.06,.04,.12,.05,.17,.94-.33,1.87-.7,2.77-1.11-1.59-2.86-3.02-5.81-4.28-8.83Z"/><path class="cls-1" d="M108.11,94.64l6.14-3.5c-.23-.96-.5-1.91-.83-2.84-2.39,1.17-4.78,2.33-7.17,3.5,.45,.63,.89,1.28,1.31,1.94,.19,.3,.37,.6,.55,.9Z"/><path class="cls-1" d="M110.13,98.75c.02,.06,.04,.12,.07,.18,1.62-1.07,3.13-2.28,4.75-3.34-.07-.95-.19-1.9-.36-2.84-1.91,1.09-3.81,2.17-5.72,3.26,.28,.54,.55,1.08,.8,1.64,.16,.37,.32,.73,.46,1.11Z"/><path class="cls-1" d="M105.14,90.28c.06,.08,.12,.16,.18,.24h.01c2.51-1.23,5.03-2.46,7.54-3.69-.18-.44-.38-.88-.58-1.31-.25-.52-.51-1.03-.79-1.53-2.9,1.12-5.81,2.24-8.71,3.36,.63,.77,1.27,1.54,1.89,2.34,.15,.19,.3,.39,.45,.58Z"/><path class="cls-1" d="M114.9,100.5v-.02c.11-1.02,.15-2.05,.13-3.08-1.45,1-2.84,2.09-4.32,3.05,.06,.18,.11,.37,.16,.56,.2,.73,.37,1.47,.5,2.24,.01,.09,.03,.17,.04,.26,1.05-.94,2.1-1.88,3.15-2.82,.11-.1,.23-.15,.34-.18Z"/><path class="cls-1" d="M108.38,65.36c1.21,.25,2.4,.62,3.54,1.1l-.89-2.54c-.94-.14-1.89-.26-2.84-.37,.06,.6,.12,1.2,.18,1.8Z"/><path class="cls-1" d="M115.9,70.64c-3.41,.85-6.59,2.24-9.52,4.17,.24,.23,.49,.46,.73,.7,.71,.72,1.39,1.47,2.04,2.25,3.81-.78,7.67-1.23,11.56-1.33-1.22-2.18-2.82-4.16-4.8-5.79Z"/><path class="cls-1" d="M123.54,90.95c-2.8-1.11-5.65-2.07-8.55-2.86,.31,.92,.57,1.86,.79,2.8l7.25,3.19c.14-.63,.26-1.27,.36-1.92,.06-.4,.11-.81,.15-1.21Z"/><path class="cls-1" d="M52.22,100.74c-.9,.97-1.73,2.04-2.47,3.15,.65-.12,1.3-.24,1.96-.34,.7-.81,1.39-1.61,2.09-2.42-.52-.15-1.05-.28-1.58-.4Z"/><path class="cls-1" d="M114.07,85.67c.09,.21,.17,.42,.26,.64h.01c3.17,.82,6.28,1.83,9.32,3.02,.06-1.5,0-3-.2-4.48-.01,0-.02,0-.04,0-3.43-.73-6.9-1.17-10.4-1.34,.38,.71,.72,1.43,1.04,2.16Z"/><path class="cls-1" d="M27.44,114.52c-.75,.49-1.66,.71-2.55,.64,.44-.83,1.08-1.54,1.87-2.05,1.18-.77,2.38-1.49,3.59-2.17-.93-.62-1.87-1.24-2.8-1.87-1.69,1.89-3.12,4.02-4.24,6.31,2.36,1.24,4.86,2.09,7.4,2.57,.26-1.95,.52-3.91,.78-5.86-1.37,.76-2.72,1.57-4.05,2.44Z"/><path class="cls-1" d="M36.57,102.44c-1.48,.66-2.9,1.46-4.23,2.39l3.17,3.51c.67-.3,1.34-.59,2.02-.86l-.96-5.04Z"/><path class="cls-1" d="M28.63,107.93c1.09,.72,2.17,1.45,3.26,2.17,.71-.37,1.42-.73,2.15-1.08-.98-1.08-1.95-2.17-2.93-3.25v-.02c-.88,.67-1.7,1.4-2.47,2.18Z"/><path class="cls-1" d="M34.97,110.3c-.61,.29-1.21,.58-1.81,.89,0,0,0,.01,0,.02l-.91,6.9s-.01,.05-.02,.08c.93,.12,1.86,.2,2.79,.22-.02-2.71-.03-5.41-.05-8.12Z"/><path class="cls-1" d="M38.05,101.88c.32,1.67,.64,3.35,.95,5.02,.44-.17,.89-.33,1.34-.49,.08-1.85,.37-3.73,.86-5.52-1.08,.25-2.14,.56-3.17,.95,0,.02,0,.03,.01,.04Z"/><path class="cls-1" d="M41.93,105.88c.68-.22,1.36-.43,2.04-.62,.28-1.77,.88-3.45,1.77-4.99-.95,.05-1.89,.15-2.82,.29-.54,1.72-.88,3.52-1,5.32Z"/><path class="cls-1" d="M101.25,114.11s-.02-.07-.02-.1c-.73-.46-1.46-.9-2.2-1.32,.22,1.94,.44,3.87,.67,5.81,.93-.16,1.85-.37,2.75-.62-.4-1.25-.8-2.51-1.2-3.76Z"/><path class="cls-1" d="M47.65,104.32c.79-1.37,1.73-2.68,2.76-3.89-.93-.12-1.88-.19-2.82-.2-.95,1.42-1.59,2.93-1.96,4.57,.67-.17,1.34-.33,2.01-.48Z"/><path class="cls-1" d="M70.67,104.4c-.28,.23-.55,.47-.82,.73,.45,.72,.93,1.42,1.44,2.09l2.85-2.54c-1.15-.12-2.3-.21-3.47-.28Z"/><path class="cls-1" d="M83.3,106.31c-1.59,2.59-3.18,5.18-4.76,7.77,.68,.46,1.38,.89,2.1,1.28,1.62-2.78,3.08-5.64,4.38-8.59-.57-.16-1.14-.32-1.72-.46Z"/><path class="cls-1" d="M79.87,105.54s-.03,.05-.05,.08c-1.59,1.91-3.18,3.82-4.76,5.73,.71,.64,1.44,1.25,2.21,1.82l4.44-7.24c-.61-.14-1.22-.27-1.84-.39Z"/><path class="cls-1" d="M44.04,117.02c-1.18-3-2.35-6.01-3.53-9.01h0c-.47,.16-.93,.34-1.4,.52,.02,.05,.03,.09,.04,.14,.54,3.12,1.08,6.24,1.61,9.35,1.15-.19,2.29-.46,3.41-.78-.05-.06-.1-.13-.13-.22Z"/><path class="cls-1" d="M88.63,107.91c-.7-.25-1.4-.48-2.11-.7-1.33,3.04-2.83,5.99-4.5,8.86,.91,.44,1.85,.84,2.81,1.18,0-.09,.02-.19,.06-.3,1.23-2.98,2.46-5.96,3.69-8.95,.02-.04,.04-.07,.06-.1Z"/><path class="cls-1" d="M47.32,105.99c-.58,.14-1.15,.28-1.73,.43,1.23,2.93,2.62,5.79,4.17,8.57,.73-.38,1.44-.79,2.13-1.23-1.53-2.59-3.05-5.18-4.58-7.77Z"/><path class="cls-1" d="M50.82,105.36s-.03-.05-.05-.08c-.62,.11-1.23,.23-1.84,.36,1.43,2.42,2.85,4.84,4.28,7.26,.78-.55,1.53-1.13,2.25-1.75-1.54-1.93-3.09-3.85-4.63-5.78Z"/><path class="cls-1" d="M59.88,104.31c-1.13,.04-2.25,.11-3.37,.21,.93,.86,1.86,1.73,2.8,2.59,.51-.64,.99-1.31,1.44-2-.28-.28-.57-.55-.87-.8Z"/><path class="cls-1" d="M105.87,58.97c-.57,.87-1.05,1.77-1.44,2.72,.67,.04,1.34,.09,2.01,.14,.95-1.03,1.91-2.06,2.86-3.1-1.1-.19-2.24-.18-3.44,.24Z"/><path class="cls-1" d="M41.94,32.9c1.76-2.36,3.58-4.24,5.39-5.72,.81-.66,1.61-1.24,2.41-1.75,1.4-.89,2.77-1.56,4.1-2.05,.38-.14,.75-.27,1.12-.38,.18-.06,.37-.11,.55-.16,.36-.1,.72-.18,1.08-.25,.71-.14,1.39-.24,2.04-.28,.33-.02,.65-.04,.96-.04,.16,0,.31,0,.46,0,.55,0,1.07,.04,1.56,.1,1.46,.18,2.92,.28,4.39,.29,1.47,0,2.93-.06,4.4-.22,.49-.05,1.02-.08,1.56-.07,.15,0,.31,0,.46,0,.31,0,.63,.03,.96,.06,.65,.06,1.33,.17,2.04,.32,.35,.08,.71,.17,1.07,.27,.18,.05,.36,.11,.55,.17,.37,.12,.74,.25,1.12,.4,1.32,.51,2.68,1.21,4.06,2.12,.79,.52,1.58,1.12,2.38,1.79,1.79,1.51,3.57,3.43,5.29,5.82,1.75,2.43,3.06,4.89,4.04,7.33-.65-6.91-3.52-13.54-8.11-18.56-5.22-5.7-12.12-8.88-19.4-8.94-7.73-.07-14.67,2.9-20.08,8.59-4.59,4.73-7.54,11.13-8.38,17.96,.99-2.28,2.29-4.55,3.97-6.81Z"/><path class="cls-1" d="M74.4,58.22c-1.85-.02-3.34-1.53-3.33-3.39,0-.04,0-.09,0-.13-1.6-1.17-2.91-2.69-3.87-4.44l-2.87-.03c-.99,1.73-2.33,3.23-3.95,4.37-.02,1.85-1.54,3.33-3.39,3.32-.93,0-1.77-.39-2.37-1.01-1.99,.41-4.02,.68-5.85,1.48,4.06-.39,8.37,.84,11.31,3.71,.72,.7-.39,1.79-1.11,1.09-2.95-2.87-7.54-3.88-11.5-3.03-.41,.09-.72-.13-.87-.43-2.24,1.87-3.53,4.81-3.83,7.75-.35,3.42,.48,6.86,1.59,10.11,1.91,5.59,4.68,10.87,8.09,15.69,1.45,2.05,3.04,4.04,5.04,5.56,1.81,1.37,4.93,2.36,7.37,2.45,.06,0,.11,0,.17,0,.09,0,.19,0,.29,0,.1,0,.19,0,.29,0,.05,0,.11,0,.17,0,2.44-.05,5.58-.98,7.41-2.32,2.03-1.48,3.65-3.44,5.14-5.47,3.49-4.76,6.36-9.99,8.36-15.54,1.17-3.23,2.06-6.65,1.77-10.08-.25-2.93-1.48-5.88-3.68-7.8-.17,.2-.44,.33-.77,.25-3.98-.92-8.62,.15-11.62,2.97-.73,.69-1.82-.42-1.09-1.11,2.86-2.69,6.97-3.96,10.89-3.69-1.67-.69-3.5-.98-5.3-1.38-.62,.67-1.51,1.09-2.5,1.09Zm-7.16,23.45c.54-.21,1.07-.42,1.61-.63,.39-.15,.85,.18,.95,.55,.12,.44-.16,.8-.55,.95l-1.61,.63c-.39,.15-.85-.18-.95-.55-.12-.44,.16-.8,.55-.95Zm-5.98-.15c.11-.37,.57-.69,.96-.54,.53,.22,1.07,.44,1.6,.66,.39,.16,.66,.52,.54,.96-.11,.37-.57,.69-.96,.54-.53-.22-1.07-.44-1.6-.66-.39-.16-.66-.52-.54-.96Zm-6.3-11.43c-1.92-.02-3.46-1.59-3.44-3.5,0-.08,0-.16,.02-.25-2.62,.54-2.97,2.01-3.05,2.24-.07,.2-.17,.37-.34,.48-.17,.11-.37,.1-.58,.11-.64,.03-.76,.05-.59-.91,.02-.12,.64-2.84,4.59-3.49,3.25-.53,6.7,1.08,8.55,2.74,.56,.5,.88,1.23,.87,1.98l-.24-.02c-.58-.06-1.12-.3-1.54-.7-.29-.27-.64-.55-1.02-.81-.53,1.27-1.8,2.15-3.24,2.14Zm14.85,22.18c-1.34,1.21-2.78,1.81-4.3,1.8-2.57-.02-4.39-1.82-4.47-1.9-.3-.3-.29-.79,0-1.09,.3-.3,.79-.29,1.09,0,.13,.13,3.18,3.15,6.64,.04,.32-.28,.8-.26,1.09,.06,.28,.31,.26,.8-.06,1.09Zm2.76-3.02c-.14,.07-3.83,1.66-7.12,.87-3.3,.73-6.96-.92-7.1-.99l-.56-.34,.05-.03c.29-.16,.61-.26,.93-.33,1.12-.24,3.07-1.2,4.07-1.69,.57-.28,.7-.34,.79-.36,.33-.07,.84-.02,1.08,.29,.24,.31,.5,.37,.76,.37,.26,0,.52-.06,.77-.36,.24-.3,.75-.35,1.08-.27,.09,.02,.22,.08,.78,.37,.99,.51,2.93,1.5,4.04,1.76,.32,.08,.64,.19,.93,.35l.05,.03-.57,.33Zm7.04-24.25c3.93,.72,4.5,3.45,4.53,3.57,.08,.42-.19,.82-.61,.9-.42,.08-.82-.19-.9-.61-.01-.07-.39-1.7-3-2.29,0,.08,.01,.16,.01,.25-.02,1.92-1.59,3.46-3.5,3.44-1.43-.01-2.69-.91-3.2-2.2-.69,.44-1.24,.93-1.59,1.38-.15,.19-.38,.31-.62,.31-.17,0-.33-.06-.46-.16-.16-.12-.27-.3-.3-.51-.03-.2,.02-.41,.15-.57,1.43-1.89,5.63-4.23,9.5-3.52Z"/><path class="cls-1" d="M114.67,40.77c-.04,1.86,.05,3.72,.04,5.58,.94-.45,1.89-.87,2.84-1.28,.37-3.06,.66-6.14,1.01-9.21-.06,.05-.11,.11-.17,.16-1.4,1.39-2.48,3.12-3.74,4.65,0,.03,0,.06,0,.09Z"/><path class="cls-1" d="M97.79,57.13c-.34-.72-.38-1.55-.38-2.39-.32,.61-.64,1.2-.98,1.79-.03,.78-.07,1.55-.12,2.31,.49-.46,.99-.9,1.49-1.35-.05-.13-.05-.26-.02-.37Z"/><path class="cls-1" d="M114.1,48.39c-.91,.46-1.81,.93-2.7,1.43l1.18,4.53c1.69-.48,3.42-.72,5.22-.77-1.23-1.73-2.47-3.45-3.7-5.18Z"/><path class="cls-1" d="M110.23,79.13c.68,.9,1.31,1.83,1.89,2.79,3.72,.12,7.42,.56,11.07,1.3-.36-1.82-.93-3.59-1.7-5.27-.04,0-.08,.01-.12,.01-3.75,.06-7.46,.45-11.14,1.16Z"/><path class="cls-1" d="M113.9,67.41c1.02,.56,1.98,1.21,2.88,1.95,.58,.47,1.13,.97,1.65,1.49-.94-2.01-1.86-4.02-2.82-6.02,0-.02-.01-.03-.02-.05-.93-.22-1.87-.41-2.82-.58,.37,1.07,.75,2.14,1.12,3.21Z"/><path class="cls-1" d="M116.15,92.75c.16,.95,.27,1.9,.34,2.85,1.55,1.43,3.09,2.85,4.64,4.28,.61-1.38,1.12-2.81,1.52-4.27-2.17-.95-4.33-1.91-6.5-2.86Z"/><path class="cls-1" d="M96.23,68.82c-.48,.37-.89,.78-1.22,1.26-.06,.55-.11,1.09-.15,1.61,0,.09,0,.18-.01,.27,1.28-.57,2.59-.98,3.95-1.26-.86-.62-1.72-1.24-2.57-1.87Z"/><path class="cls-1" d="M103.38,64.98c.06,0,.11,0,.17-.01,1.09-.06,2.18-.01,3.25,.12l-.17-1.69c-.94-.08-1.88-.14-2.81-.19-.14,.59-.29,1.18-.43,1.77Z"/><path class="cls-1" d="M101.76,56.25c-.64,.5-1.27,1.01-1.89,1.54,.92,1.21,1.97,2.24,3.2,3.14,.38-.92,.85-1.8,1.39-2.63-1.09-.31-2.01-.97-2.7-2.04Z"/><path class="cls-1" d="M101.76,86.09c2.99-1.15,5.97-2.3,8.96-3.45-.59-.96-1.23-1.89-1.91-2.78-3.2,.94-6.34,2.04-9.41,3.32,.74,.97,1.54,1.93,2.36,2.92h0Z"/><path class="cls-1" d="M98.47,33.6c.11,.6,.23,1.19,.29,1.79,.1,.95,.14,1.91,.11,2.87l2.62,1.79c.26-.9,.5-1.8,.71-2.71-1.13-1.36-2.48-2.5-3.73-3.74Z"/><path class="cls-1" d="M96.78,47.02c.44,.72,.98,1.34,1.61,1.87,.41-.98,.79-1.98,1.16-2.97-.65-.44-1.27-.93-1.86-1.45-.25,.71-.52,1.41-.84,2.1-.06,.13-.13,.22-.22,.28,.05,.05,.11,.11,.15,.18Z"/><path class="cls-1" d="M97.41,80.37c.32,.51,.67,1.02,1.04,1.53,3.05-1.28,6.15-2.4,9.32-3.36-.67-.8-1.38-1.57-2.12-2.3-.08-.08-.17-.16-.26-.25-2.96,.61-5.81,1.53-8.56,2.8-.1,.05-.19,.07-.29,.07,.07,.14,.15,.27,.22,.41,.2,.37,.42,.73,.65,1.09Z"/><path class="cls-1" d="M97.7,63.11c-.6,0-1.2,.02-1.8,.04-.18,1.54-.39,3.01-.57,4.4,.27-.21,.56-.4,.87-.58l1.51-3.87Z"/><path class="cls-1" d="M95.49,76.49c.12,.35,.26,.7,.4,1.05,.04-.03,.09-.06,.15-.09,2.56-1.18,5.2-2.1,7.93-2.73-1.11-.96-2.26-1.87-3.44-2.74-1.89,.22-3.71,.75-5.43,1.57-.08,.04-.16,.06-.24,.07,.05,.59,.15,1.17,.29,1.73,.09,.39,.21,.77,.34,1.15Z"/><path class="cls-1" d="M109.41,45.71c-.7,.57-1.4,1.11-2.12,1.65,0,.07-.02,.14-.04,.21-.39,1.11-.63,2.23-.75,3.38,1.01-.65,2.04-1.28,3.08-1.89-.14-1.12-.2-2.23-.17-3.35Z"/><path class="cls-1" d="M103.94,49.77s-.06,.05-.09,.07c-.01,.01-.02,.03-.03,.04-.97,1.08-1.39,2.43-1.28,3.8,.77-.57,1.54-1.12,2.33-1.66,.02-1.08,.16-2.14,.39-3.19-.44,.31-.88,.62-1.33,.93Z"/><path class="cls-1" d="M101.03,41.61c-.77-.52-1.53-1.05-2.3-1.57-.12,.93-.29,1.85-.53,2.75,.6,.58,1.23,1.1,1.9,1.59,.32-.92,.63-1.84,.93-2.77Z"/><path class="cls-1" d="M99.36,63.1c-.38,.98-.76,1.95-1.14,2.93,1.15-.42,2.36-.7,3.51-.87,.16-.67,.33-1.34,.49-2.01-.95-.03-1.91-.05-2.86-.05Z"/><path class="cls-1" d="M103.71,37.84c-.2,.92-.42,1.83-.67,2.74,1.45-.08,2.89-.15,4.34-.23,.66-1.11,1.31-2.23,1.8-3.4-1.81,.38-3.63,.68-5.47,.89Z"/><path class="cls-1" d="M101.58,70.82c1.25,.93,2.46,1.89,3.63,2.92,.02-.02,.04-.04,.07-.05,2.78-1.88,5.81-3.29,9.02-4.22-2.08-1.36-4.43-2.28-6.87-2.7-2.25,.91-4.21,2.3-5.85,4.05Z"/><path class="cls-1" d="M103.79,66.52c-1.79,.07-4.18,.48-6.13,1.43,.89,.65,1.78,1.29,2.67,1.94,1.22-1.35,2.62-2.47,4.17-3.38-.23,0-.47,0-.7,.01Z"/><path class="cls-1" d="M96.07,61.59c1.75-.05,3.52-.06,5.3-.03-.99-.82-1.88-1.74-2.67-2.77-.89,.78-1.75,1.58-2.58,2.4-.01,.13-.03,.26-.04,.39Z"/><path class="cls-1" d="M101.5,50.71c-.52,.13-1.05,.22-1.6,.26-.09,0-.16,0-.23-.02-.09,.08-.19,.14-.3,.17-.17,.81-.29,1.62-.35,2.45-.05,.84-.23,1.96,.14,2.79,.65-.54,1.31-1.07,1.98-1.6-.31-1.38-.18-2.78,.36-4.04Z"/><path class="cls-1" d="M101.46,46.63c-.12,0-.22-.01-.3-.05-.02,0-.04,.02-.07,.03-.36,.94-.73,1.87-1.13,2.8,1-.08,1.93-.39,2.86-.73,.41-.71,.81-1.43,1.2-2.15l-2.56,.11Z"/><path class="cls-1" d="M27.83,35.57c-.15-.93-.29-1.86-.39-2.79h0s0-.06,0-.1c-.01-.13-.03-.26-.04-.39,0-.03,0-.05,0-.08-.01-.22,0-.43,.06-.67,.1-.38,.48-1.67,.48-1.67l.54,.81c.25,.48,.41,.99,.47,1.53,0,.03,.02,.06,.02,.09,.08,.83,.2,1.66,.34,2.49,1.45-1.48,3.11-2.75,4.46-4.34,0,0,.01-.01,.02-.02,0-.01,0-.02,0-.03-.02-1.8-2.17-1.78-2.97-.52-.32,.5-1.04,.5-1.34-.01-1.16-1.94-3.75-1.02-3.63,1.18,.04,.75-.86,.92-1.33,.54-.92-.74-2.02-.4-2.52,.61-.34,.71-.19,1.5,.07,2.24,1.92,.48,3.85,.85,5.8,1.13Z"/><path class="cls-1" d="M18.52,46.21s0,.05,0,.08c.7,.37,1.4,.75,2.09,1.15,.15-1.3,.16-2.6,.07-3.91-.7-.64-1.38-1.3-2.03-1.98-.04,1.55-.14,3.11-.13,4.66Z"/><path class="cls-1" d="M30.05,44.43c-.32-.97-.62-1.95-.89-2.93-1.28-.09-2.56-.18-3.85-.27,.14,.26,.28,.53,.41,.79,.37,.74,.74,1.48,1.11,2.22,1.07,.06,2.14,.13,3.22,.19Z"/><path class="cls-1" d="M33.86,49.81c.38,.92,.78,1.82,1.21,2.72,.07-1.4,.21-2.82,.44-4.26-.48,.58-1.04,1.1-1.65,1.54Z"/><path class="cls-1" d="M19.21,102.64c.01-.07,.02-.14,.04-.21,.14-.77,.32-1.51,.54-2.23,.06-.2,.12-.39,.18-.59-1.45-.98-2.8-2.08-4.22-3.09-.03,1.03-.01,2.06,.06,3.08v.02c.13,.03,.25,.09,.36,.19,1.01,.94,2.03,1.89,3.04,2.83Z"/><path class="cls-1" d="M16.15,46.82c-.94-.47-1.88-.91-2.83-1.33-.03,.05-.06,.1-.1,.14-2.1,2.54-4.37,4.91-6.81,7.12,1.39,.14,2.84,.02,4.06-.06,.46-.03,.91-.05,1.36-.06,1.44-1.94,2.88-3.87,4.31-5.81Z"/><path class="cls-1" d="M20.06,61.59c.98-.13,1.97-.24,2.96-.33l-2.56-2.87v-.02c-1.06,.32-2.1,.74-3.15,1.09l2.75,2.12Z"/><path class="cls-1" d="M11.85,44.86c-.89-.37-1.78-.72-2.68-1.05h0c-.06-.02-.12-.04-.18-.07h-.02v-.02c-.33-.13-.63-.29-.89-.48-.31-.24-1.29-1.16-1.29-1.16l.96-.13c.55-.02,1.11,.07,1.63,.27h.02c1.05,.39,2.1,.8,3.14,1.24-.31-3.16-.55-6.32-.88-9.47,0-.07,0-.13,0-.19-.53-.23-1.08-.32-1.62-.17-2.2,.64-1.49,2.85-.62,4.28,.34,.56-.24,1.37-.89,1.14-1.66-.6-3.48-.29-4.16,1.54-.57,1.53,.07,3.27,1.39,4.18,.82,.56,.06,1.87-.8,1.34-1.08-.67-2.55-.13-3.12,.98-.6,1.17-.17,2.87,.62,3.85,.56,.69,1.28,1.13,2.08,1.42,2.63-2.32,5.07-4.81,7.32-7.5Z"/><path class="cls-1" d="M14.15,44.16c.95,.42,1.89,.86,2.82,1.33,.02-1.86,.15-3.72,.14-5.58,0-.03,0-.06,0-.09-1.24-1.56-2.28-3.31-3.66-4.72-.05-.05-.11-.11-.16-.16,.3,3.07,.54,6.15,.85,9.22Z"/><path class="cls-1" d="M26.71,51.34c.78,.55,1.55,1.12,2.3,1.7,.14-1.37-.26-2.72-1.21-3.82-.01-.01-.02-.03-.03-.04-.03-.02-.06-.05-.09-.08-.44-.32-.87-.63-1.31-.95,.22,1.05,.33,2.12,.34,3.2Z"/><path class="cls-1" d="M15.96,87.22c-2.91,.74-5.77,1.64-8.58,2.7,.09,1.06,.23,2.11,.44,3.15l7.3-3.06c.23-.94,.52-1.87,.84-2.79Z"/><path class="cls-1" d="M22.37,54.62c1.17-.55,2.06-1.47,2.53-2.65-1.08-.74-2.18-1.45-3.29-2.14l-1.17,4.18c.57,.23,1.14,.48,1.7,.77,.06-.06,.13-.12,.23-.17Z"/><path class="cls-1" d="M22.05,48.29c1.03,.62,2.05,1.27,3.05,1.94-.09-1.15-.32-2.27-.69-3.39-.02-.07-.03-.14-.04-.21-.71-.55-1.41-1.11-2.09-1.69,0,1.12-.08,2.23-.23,3.35Z"/><path class="cls-1" d="M14.92,62.49c1-.22,2-.42,3.02-.59l-2.51-1.94h-.01c-.2,.03-.41,.06-.62,.08-1.13,.13-2.1-.06-3.09-.36,.98,1.03,2.05,1.97,3.21,2.81Z"/><path class="cls-1" d="M28.53,54.63c-.77-.6-1.55-1.18-2.34-1.75-.54,1.15-1.41,2.13-2.51,2.79,.26,.17,.53,.34,.79,.52,1.77,.28,3.14-.13,4.06-1.57Z"/><path class="cls-1" d="M21.99,77c.66-.77,1.35-1.51,2.08-2.22,.24-.24,.49-.46,.74-.69-2.9-1.98-6.04-3.43-9.43-4.33-.54,.42-1.05,.87-1.54,1.35-1.34,1.32-2.46,2.78-3.38,4.35,3.89,.17,7.74,.69,11.54,1.54Z"/><path class="cls-1" d="M22.16,57.96l2.81,3.15c.67-.04,1.34-.08,2.02-.11-.37-.96-.83-1.87-1.39-2.74-1.19-.44-2.33-.47-3.43-.3Z"/><path class="cls-1" d="M19.41,65.63c1.15-.45,2.34-.8,3.56-1.02,.07-.6,.14-1.2,.22-1.8-.95,.09-1.9,.19-2.84,.32-.31,.84-.62,1.67-.93,2.51Z"/><path class="cls-1" d="M78.13,105.22c-.67-.11-1.35-.22-2.03-.31-.04,.1-.1,.19-.2,.28-1.19,1.06-2.38,2.12-3.57,3.19-.02,.02-.05,.04-.07,.05,.53,.64,1.09,1.25,1.68,1.84,1.4-1.68,2.8-3.37,4.2-5.05Z"/><path class="cls-1" d="M120.36,101.29c-1.27-1.17-2.53-2.33-3.8-3.5,0,.98-.05,1.96-.14,2.93,.78,1.21,1.56,2.43,2.34,3.64,.61-.98,1.17-1.98,1.68-3.01-.03-.02-.06-.04-.08-.06Z"/><path class="cls-1" d="M122.54,59.79c-1.22,1.54-2.61,2.91-4.15,4.1,.35,.1,.69,.19,1.04,.3,.53,.16,1.02,.43,1.45,.79l.68,.69s-1.34,.13-1.73,.13c-.39,0-.81-.1-1.21-.22-.36-.11-.72-.2-1.08-.3,.91,1.94,1.8,3.89,2.72,5.82,1.49,0,2.69-1.36,1.1-2.63-.61-.48,.07-1.56,.77-1.29,2.23,.84,3.13-2.36,.82-2.85-.89-.19-.62-1.51,.22-1.53,1.5-.03,2.09-1.82,.93-2.68-.48-.36-1.01-.42-1.56-.35v.02Z"/><path class="cls-1" d="M116.1,103.09c-.32,1.78-.79,3.53-1.43,5.22-.32,.85-.95,1.55-1.74,1.99l-.05-.51c-.05-.59,.02-1.19,.24-1.74,.68-1.72,1.18-3.51,1.49-5.34-.87,.78-1.74,1.56-2.61,2.35-.12,.11-.25,.17-.38,.19,.07,.81,.09,1.64,.07,2.5h0c-.04,1.87-.3,3.86-.81,5.99h.01c2.59-2.4,4.96-5.06,6.94-7.96-.58-.9-1.16-1.8-1.74-2.7Z"/><path class="cls-1" d="M94.03,110.1c-.37-.17-.75-.34-1.13-.51-.58,3.05-1.16,6.1-1.75,9.16,.17,.02,.34,.04,.51,.06,.72,.07,1.44,.11,2.16,.13,.07-2.94,.14-5.89,.21-8.83Z"/><path class="cls-1" d="M116.01,60.85l-2.54,1.89c1.01,.19,2.01,.4,3,.64,1.17-.81,2.24-1.72,3.23-2.72-.98,.28-1.96,.43-3.07,.28-.21-.03-.41-.06-.62-.1h-.01Z"/><path class="cls-1" d="M55.38,101.68h0l-1.34,1.55c1.25-.15,2.52-.27,3.79-.36-.78-.46-1.6-.86-2.45-1.19Z"/><path class="cls-1" d="M111,59.19l-2.61,2.82c.99,.11,1.97,.23,2.95,.38l2.79-2.07c-1.05-.36-2.08-.8-3.12-1.14v.02Z"/><path class="cls-1" d="M118.46,46.56s-.07-.1-.09-.14c-.96,.4-1.91,.83-2.85,1.28,1.4,1.96,2.81,3.92,4.21,5.89,.45,.02,.9,.04,1.36,.08,1.22,.11,2.67,.25,4.06,.14-2.4-2.26-4.62-4.67-6.68-7.24Z"/><path class="cls-1" d="M18.85,106.93h0c0-.87,.04-1.71,.12-2.52-.11-.03-.22-.09-.32-.18-.86-.8-1.71-1.59-2.57-2.39,.28,1.83,.75,3.63,1.4,5.36,.21,.56,.28,1.16,.21,1.75l-.06,.51c-.79-.45-1.4-1.16-1.71-2.02-.61-1.71-1.05-3.47-1.33-5.25-.6,.9-1.2,1.79-1.8,2.69,.14,.21,.28,.42,.42,.62,1.73,2.53,3.89,5.43,6.36,7.45-.48-2.15-.7-4.15-.71-6.03Z"/><path class="cls-1" d="M58.26,108.26c-1.17-1.08-2.34-2.17-3.51-3.25-.1-.09-.16-.19-.2-.28-.68,.08-1.36,.17-2.04,.27,1.36,1.7,2.73,3.4,4.09,5.1,.6-.57,1.17-1.17,1.72-1.79-.02-.02-.04-.03-.06-.05Z"/><path class="cls-1" d="M63.76,109.46l.42-.41-.18-.18c-.08,.2-.15,.4-.24,.59Z"/><path class="cls-1" d="M37.66,109.11c-.38,.16-.76,.32-1.14,.49,.02,2.94,.04,5.89,.05,8.83,.89-.02,1.78-.08,2.66-.19-.52-3.04-1.05-6.09-1.58-9.13Z"/><path class="cls-1" d="M91.42,109.13c.01-.05,.03-.1,.04-.14-.46-.19-.92-.37-1.39-.54h0c-1.23,2.99-2.46,5.97-3.69,8.95-.05,.13-.14,.23-.23,.31,1.13,.35,2.29,.63,3.47,.83,.6-3.13,1.2-6.27,1.79-9.4Z"/><path class="cls-1" d="M13.81,64.36c-.36,.09-.72,.18-1.08,.28-.4,.11-.83,.2-1.21,.2s-1.73-.16-1.73-.16l.7-.68c.43-.35,.93-.61,1.46-.76,.35-.1,.69-.19,1.04-.28-1.52-1.22-2.88-2.61-4.08-4.18h0c-.74-.14-1.5-.07-1.97,.6-.71,1,.13,2.35,1.29,2.4,.85,.03,1.08,1.36,.19,1.53-2.36,.46-1.45,3.66,.77,2.86,.71-.25,1.36,.84,.75,1.31-1.62,1.24-.44,2.61,1.05,2.64,.96-1.92,1.88-3.85,2.83-5.77Z"/><path class="cls-1" d="M28.82,48.02c.92,.36,1.85,.69,2.85,.78-.38-.93-.74-1.87-1.08-2.82-.02,0-.05-.02-.07-.03-.09,.03-.19,.05-.3,.04l-2.56-.15c.38,.73,.76,1.45,1.16,2.17Z"/><path class="cls-1" d="M66.39,109.07l.41,.42c-.08-.2-.15-.4-.23-.6l-.19,.18Z"/><path class="cls-1" d="M30.4,54.13c.66,.53,1.31,1.07,1.95,1.63,.38-.82,.24-1.96,.19-2.78-.04-.83-.15-1.64-.3-2.45-.11-.03-.21-.1-.3-.18-.07,.01-.15,.02-.23,.02-.55-.05-1.08-.15-1.6-.28,.51,1.27,.63,2.68,.29,4.05Z"/><path class="cls-1" d="M14.72,91.85c-2.18,.91-4.37,1.83-6.55,2.74,.38,1.47,.86,2.91,1.44,4.31,1.57-1.4,3.15-2.8,4.72-4.2,.09-.95,.22-1.9,.39-2.85Z"/><path class="cls-1" d="M18.94,81.1c.6-.95,1.25-1.87,1.94-2.76-3.66-.78-7.37-1.23-11.12-1.36-.04,0-.08,0-.12-.02-.8,1.66-1.4,3.42-1.79,5.23,3.66-.68,7.36-1.05,11.09-1.1Z"/><path class="cls-1" d="M14.22,96.88c-1.29,1.14-2.57,2.29-3.86,3.43-.03,.03-.06,.05-.1,.07,.49,1.04,1.03,2.06,1.62,3.05,.81-1.21,1.62-2.41,2.42-3.62-.08-.98-.11-1.96-.09-2.93Z"/><path class="cls-1" d="M29.64,36.7c.19,.91,.42,1.82,.66,2.73,.89-.58,1.77-1.16,2.66-1.75-.02-.96,.04-1.92,.16-2.87,.07-.6,.2-1.19,.32-1.79-1.27,1.22-2.64,2.34-3.8,3.68Z"/><path class="cls-1" d="M17.55,47.54c-1.27,1.7-2.53,3.41-3.8,5.11,1.8,.08,3.53,.36,5.21,.86,.42-1.5,.84-3,1.26-4.51-.88-.51-1.78-1-2.68-1.47Z"/><path class="cls-1" d="M17.07,66.73c.12-.06,.23-.12,.35-.19,.39-1.06,.78-2.11,1.17-3.17-.95,.15-1.89,.33-2.83,.53,0,.02-.01,.03-.02,.05-.99,1.97-1.94,3.97-2.91,5.95,1.26-1.22,2.67-2.29,4.24-3.16Z"/><path class="cls-1" d="M28.12,37.17c-1.83-.25-3.65-.58-5.45-.99,.47,1.18,1.1,2.31,1.74,3.44l4.33,.31c-.23-.92-.44-1.83-.62-2.75Z"/><path class="cls-1" d="M33.25,48.31c.64-.52,1.19-1.13,1.64-1.84,.05-.07,.1-.13,.15-.18-.09-.07-.16-.16-.22-.29-.3-.69-.57-1.4-.8-2.11-.6,.51-1.23,.99-1.89,1.42,.35,1,.72,2,1.11,2.99Z"/><path class="cls-1" d="M98.16,118.7l-.79-6.92s0-.01,0-.02c-.59-.32-1.19-.62-1.79-.92-.06,2.7-.13,5.4-.19,8.09,.93-.03,1.86-.1,2.78-.21v-.02Z"/><path class="cls-1" d="M30.74,99.54c-11.82-1.07-10.86,4.48-10.9,8.65-.02,1.84,.39,4.97,1.72,6.18,.13,.08,.27,.17,.4,.25,1.87-3.87,4.6-7.3,7.99-9.97,4.11-3.24,9.76-5.43,15.42-5.92-.19,0-.37,0-.54,.02,8.49-.43,7.22-3.61,4.62-8.28-.44-.67-.77-1.25-.94-1.68,.9,9.25-12.81,11.2-17.78,10.75Z"/><path class="cls-1" d="M83.13,100.54c-.94,0-1.89,.04-2.83,.14,1.02,1.23,1.93,2.56,2.7,3.95,.67,.16,1.34,.33,2,.52-.34-1.65-.95-3.17-1.88-4.61Z"/><path class="cls-1" d="M75.32,101.85s-.02-.03-.03-.05c-.89,.32-1.75,.72-2.57,1.18,1.31,.11,2.62,.25,3.91,.44l-1.31-1.57Z"/><path class="cls-1" d="M99.53,106.36h-.01c-1,1.08-1.99,2.15-2.99,3.22,.71,.36,1.42,.73,2.13,1.11l3.29-2.11c-.76-.79-1.57-1.53-2.42-2.22Z"/><path class="cls-1" d="M84.99,100.62c.86,1.56,1.43,3.24,1.68,5.02,.68,.21,1.36,.43,2.03,.66-.09-1.8-.4-3.6-.9-5.33-.05,0-.11-.02-.16-.03-.87-.14-1.75-.25-2.65-.32Z"/><path class="cls-1" d="M78.48,100.94c-.54,.1-1.07,.22-1.59,.36,.69,.83,1.38,1.66,2.08,2.49,.65,.12,1.3,.24,1.95,.37-.72-1.14-1.54-2.23-2.44-3.22Z"/><path class="cls-1" d="M103.02,109.74c-.94,.61-1.89,1.21-2.83,1.82,.78,.46,1.56,.94,2.33,1.43,.76-.31,1.53-.62,2.29-.94-.56-.8-1.16-1.57-1.79-2.31Z"/><path class="cls-1" d="M98.29,105.41c-1.31-.94-2.71-1.77-4.18-2.46l-1.04,5.01c.67,.29,1.34,.59,2,.9,1.07-1.15,2.15-2.3,3.22-3.45Z"/><path class="cls-1" d="M92.65,102.36s0-.02,.01-.03c-1.02-.4-2.07-.74-3.15-1.01,.46,1.8,.72,3.68,.76,5.53,.45,.17,.89,.34,1.33,.51,.35-1.67,.7-3.33,1.04-5Z"/><path class="cls-1" d="M33.7,56.57c.03,.12,.03,.24-.02,.37,.47,.43,.94,.87,1.4,1.31-.04-.78-.07-1.57-.08-2.37-.3-.56-.59-1.12-.88-1.69-.01,.83-.07,1.67-.42,2.38Z"/><path class="cls-1" d="M27.98,64.32l-.4-1.78c-.94,.03-1.88,.08-2.82,.14l-.2,1.69c1.14-.12,2.28-.14,3.42-.05Z"/><path class="cls-1" d="M16.28,91.87c-.18,.94-.32,1.88-.41,2.83,1.59,1.08,3.07,2.31,4.65,3.39,.02-.05,.04-.1,.06-.14,.15-.37,.32-.74,.48-1.1,.26-.56,.55-1.11,.84-1.65-1.87-1.11-3.74-2.22-5.61-3.33Z"/><path class="cls-1" d="M126.72,47.18c-.87,.52-1.6-.8-.77-1.35,1.34-.89,2.01-2.61,1.47-4.16-.64-1.84-2.47-2.18-4.13-1.61-.65,.22-1.21-.6-.87-1.15,.89-1.42,1.65-3.62-.55-4.29-.54-.17-1.1-.08-1.63,.14,0,.06,0,.13,0,.2-.38,3.15-.67,6.3-1.04,9.45,1.05-.42,2.1-.81,3.16-1.17h.02c.52-.2,1.08-.27,1.63-.24l.96,.14s-1,.91-1.31,1.14c-.25,.19-.57,.34-.88,.46h-.04c-.06,.04-.12,.06-.18,.09h0c-.9,.31-1.8,.65-2.7,1,2.2,2.72,4.6,5.26,7.18,7.62,.81-.27,1.53-.71,2.1-1.38,.8-.95,1.26-2.66,.68-3.84-.55-1.12-2.01-1.69-3.1-1.03Z"/><path class="cls-1" d="M28.36,60.27c1.24-.88,2.32-1.89,3.25-3.08-.61-.53-1.23-1.06-1.86-1.57-.71,1.07-1.64,1.7-2.73,2,.53,.85,.97,1.73,1.34,2.66Z"/><path class="cls-1" d="M30.05,60.94c1.75,0,3.5,.04,5.23,.12-.01-.15-.03-.31-.04-.46-.8-.81-1.63-1.6-2.47-2.38-.81,1.01-1.71,1.92-2.72,2.72Z"/><path class="cls-1" d="M29.62,64.52c1.1,.19,2.32,.5,3.5,.96-.37-.99-.73-1.98-1.1-2.98-.95-.02-1.9-.02-2.86,0l.46,2.02Z"/><path class="cls-1" d="M36.32,71.17c-.03-.55-.08-1.13-.13-1.72-.31-.44-.68-.83-1.11-1.18-.86,.62-1.74,1.22-2.61,1.83,1.33,.3,2.61,.73,3.86,1.3,0-.08,0-.16,0-.24Z"/><path class="cls-1" d="M31.62,43.78c.68-.47,1.32-.99,1.93-1.55-.22-.91-.38-1.83-.48-2.76-.77,.51-1.55,1.02-2.32,1.53,.28,.94,.57,1.87,.88,2.79Z"/><path class="cls-1" d="M33.69,62.55c.49,1.31,.97,2.62,1.46,3.93,.27,.16,.53,.34,.78,.53-.16-1.39-.33-2.85-.49-4.39-.58-.03-1.16-.05-1.74-.07Z"/><path class="cls-1" d="M28.12,86.68c-2.87-1.17-5.74-2.33-8.61-3.5-.28,.5-.56,1-.81,1.52-.21,.43-.41,.86-.6,1.3,2.48,1.27,4.96,2.53,7.44,3.8,.06-.07,.11-.14,.17-.21,.15-.19,.31-.39,.46-.58,.64-.79,1.3-1.57,1.95-2.33Z"/><path class="cls-1" d="M22.28,79.09c-.7,.88-1.35,1.8-1.96,2.75,2.95,1.2,5.91,2.4,8.86,3.6,.83-.97,1.65-1.92,2.41-2.88-3.04-1.33-6.14-2.48-9.31-3.47Z"/><path class="cls-1" d="M30.94,69.28c.91-.64,1.82-1.27,2.72-1.91-2.1-1.08-4.77-1.5-6.83-1.55,1.53,.94,2.91,2.09,4.11,3.46Z"/><path class="cls-1" d="M17.52,87.45c-.34,.93-.63,1.87-.88,2.83,2.01,1.19,4.02,2.39,6.03,3.58,.18-.29,.36-.58,.55-.86,.44-.66,.89-1.31,1.36-1.94-2.35-1.2-4.71-2.4-7.06-3.6Z"/><path class="cls-1" d="M23.89,66.02c-2.45,.37-4.8,1.27-6.89,2.58,3.19,.99,6.18,2.45,8.93,4.37,.02,.02,.04,.04,.06,.06,1.18-1,2.42-1.94,3.68-2.85-1.61-1.79-3.55-3.21-5.79-4.16Z"/><path class="cls-1" d="M18.01,82.68c-3.5,.1-6.97,.48-10.42,1.15,0,0-.02,0-.03,0-.22,1.47-.31,2.97-.27,4.47,3.06-1.14,6.18-2.09,9.36-2.85h.01c.09-.21,.17-.43,.27-.63,.33-.73,.69-1.44,1.08-2.14Z"/><path class="cls-1" d="M35.95,74.81c.15-.57,.25-1.15,.32-1.74-.06-.01-.12-.04-.18-.06-1.71-.85-3.51-1.41-5.4-1.66-1.19,.86-2.36,1.74-3.49,2.68,2.72,.68,5.35,1.65,7.88,2.87,.04,.02,.07,.04,.1,.06,.15-.33,.29-.67,.41-1.01,.14-.38,.26-.76,.36-1.15Z"/><path class="cls-1" d="M34.28,78.73c.08-.14,.16-.28,.23-.42-.07-.01-.15-.03-.23-.07-2.72-1.32-5.56-2.29-8.51-2.95-.09,.08-.18,.16-.26,.24-.75,.72-1.47,1.48-2.16,2.26,3.13,1,6.2,2.17,9.21,3.5,.37-.49,.72-.99,1.05-1.49,.23-.36,.46-.72,.67-1.08Z"/><path class="cls-2" d="M92.73,26.79c.16,.35,.49,.55,.85,.56,.13,0,.26-.02,.38-.08l7.57-3.34c.47-.21,.69-.76,.48-1.23s-.76-.69-1.23-.47l-7.57,3.34c-.47,.21-.69,.76-.48,1.23Z"/><path class="cls-2" d="M90.25,20.54c.18,.24,.46,.36,.73,.36,.2,0,.4-.06,.57-.19l3.41-2.62c.41-.31,.49-.9,.17-1.31-.31-.41-.9-.49-1.31-.17l-3.41,2.62c-.41,.31-.49,.9-.17,1.31Z"/><path class="cls-2" d="M84.15,15.47c.17,.14,.37,.2,.57,.2,.28,0,.55-.12,.74-.35l5.16-6.47c.32-.41,.25-.99-.15-1.31-.41-.32-.99-.26-1.31,.15l-5.16,6.47c-.32,.41-.26,.99,.15,1.31Z"/><path class="cls-2" d="M78.64,11.92c.13,.07,.27,.1,.41,.1,.35,0,.68-.19,.85-.52l1.91-3.85c.23-.46,.04-1.02-.42-1.25-.46-.23-1.02-.04-1.25,.42l-1.91,3.85c-.23,.46-.04,1.02,.42,1.25Z"/><path class="cls-2" d="M72.41,9.94c.07,.02,.13,.02,.19,.02,.43,0,.82-.3,.92-.74l1.74-8.09c.11-.51-.22-1-.72-1.11-.5-.11-1,.22-1.11,.72l-1.74,8.09c-.11,.51,.21,1,.72,1.11Z"/><path class="cls-2" d="M66.24,9.1c.51,0,.94-.41,.94-.93l.04-4.3c0-.51-.41-.94-.93-.94s-.94,.41-.94,.93l-.04,4.3c0,.52,.41,.94,.93,.94Z"/><path class="cls-2" d="M58.38,9.32c.1,.43,.48,.72,.9,.73,.07,0,.14,0,.22-.02,.5-.11,.82-.61,.7-1.12l-1.83-8.07c-.11-.51-.62-.82-1.12-.7-.5,.11-.82,.61-.7,1.11l1.83,8.07Z"/><path class="cls-2" d="M49.65,7.68l1.85,3.88c.16,.33,.49,.53,.84,.53,.14,0,.28-.03,.41-.09,.09-.04,.16-.1,.23-.16,.21-.19,.32-.45,.31-.73,0-.12-.03-.24-.09-.36l-1.85-3.88c-.14-.28-.39-.46-.68-.52-.19-.03-.38-.01-.57,.07-.37,.17-.56,.56-.52,.94,.01,.1,.03,.21,.08,.31Z"/><path class="cls-2" d="M46.36,15.52c.18,.23,.45,.35,.72,.35,.21,0,.41-.06,.59-.2,.4-.32,.47-.91,.15-1.31l-5.15-6.48c-.32-.4-.91-.47-1.31-.15s-.47,.91-.15,1.31l5.15,6.48Z"/><path class="cls-2" d="M37.05,17.97l3.36,2.68s.08,.05,.12,.08c.14,.08,.3,.12,.45,.12,.21,0,.42-.07,.59-.21,.05-.04,.1-.09,.15-.15,.17-.22,.23-.49,.19-.74-.04-.22-.15-.43-.34-.57l-3.36-2.68c-.1-.08-.21-.14-.33-.17-.26-.07-.55-.02-.78,.13-.07,.05-.15,.11-.21,.19-.04,.05-.07,.1-.1,.15-.2,.39-.11,.88,.25,1.16Z"/><path class="cls-2" d="M30.26,23.89l7.53,3.43c.12,.06,.25,.08,.38,.08,.36,0,.7-.2,.86-.55,.21-.47,0-1.02-.47-1.24l-7.53-3.43c-.47-.21-1.02,0-1.24,.47-.22,.47,0,1.02,.46,1.24Z"/><g><path class="cls-2" d="M43.11,42.57l-.02,2.58,2.28,.02,.02-2.52,6.31,.06-.02,2.52,2.28,.02,.02-2.45,6.31,.06-.02,2.45,2.39,.02,.02-2.44,6.31,.06-.02,2.44,2.39,.02,.02-2.44,6.31,.06-.02,2.44,2.28,.02,.02-2.38,6.31,.06-.02,2.38,2.28,.02,.02-2.31,6.31,.06,.61,2.27c-.05-.24-.11-.47-.17-.71,.01-.31,.02-.63,.02-.94,.08-8.78-3.33-16.94-8.58-22.67-5.37-5.86-12.57-9.28-20.31-9.34-8.26-.07-15.52,3.22-20.99,8.98-5.47,5.63-8.9,13.73-8.97,22.51,0,.13,0,.25,0,.38l.33-1.27,6.31,.06Zm3.24-20.82c5.41-5.69,12.35-8.66,20.08-8.59,7.29,.06,14.18,3.24,19.4,8.94,4.6,5.02,7.47,11.65,8.11,18.56-.98-2.44-2.29-4.9-4.04-7.33-1.72-2.39-3.5-4.3-5.29-5.82-.79-.67-1.59-1.27-2.38-1.79-1.38-.91-2.75-1.61-4.06-2.12-.38-.15-.75-.28-1.12-.4-.18-.06-.37-.11-.55-.17-.36-.1-.72-.19-1.07-.27-.7-.16-1.39-.26-2.04-.32-.33-.03-.65-.05-.96-.06-.16,0-.31,0-.46,0-.55,0-1.07,.02-1.56,.07-1.46,.15-2.93,.23-4.4,.22-1.47-.02-2.93-.11-4.39-.29-.49-.06-1.01-.09-1.56-.1-.15,0-.31,0-.46,0-.31,0-.63,.02-.96,.04-.65,.05-1.34,.14-2.04,.28-.35,.07-.71,.16-1.08,.25-.18,.05-.37,.1-.55,.16-.37,.11-.74,.24-1.12,.38-1.33,.49-2.7,1.16-4.1,2.05-.8,.51-1.6,1.09-2.41,1.75-1.81,1.48-3.63,3.36-5.39,5.72-1.68,2.25-2.98,4.53-3.97,6.81,.84-6.83,3.79-13.23,8.38-17.96Z"/><path class="cls-2" d="M36.25,45.66v-2.27c.06-8.57,3.36-16.84,9.03-22.68,5.7-5.99,13.01-9.12,21.17-9.05,7.7,.07,14.98,3.41,20.49,9.42,5.57,6.08,8.72,14.4,8.64,22.83,0,.3-.01,.61-.02,.91,.06,.23,.11,.46,.17,.68l-.47,.12-.56-2.09-5.88-.05-.02,2.31-2.77-.02,.02-2.38-5.82-.05-.02,2.38-2.77-.02,.02-2.44-5.82-.05-.02,2.44-2.87-.03,.02-2.44-5.82-.05-.02,2.44-2.88-.03,.02-2.45-5.82-.05-.02,2.45-2.77-.02,.02-2.52-5.82-.05-.02,2.52-2.77-.02,.02-2.58-5.87-.05-.74,2.91Zm50.26-.37l1.8,.02,.02-2.31,6.74,.06,.03,.1c-.12-8.05-3.19-15.93-8.51-21.74-5.42-5.91-12.57-9.2-20.13-9.27-8.01-.07-15.21,3.01-20.81,8.9-5.34,5.49-8.54,13.17-8.88,21.21l6.61,.06-.02,2.58,1.8,.02,.02-2.52,6.8,.06-.02,2.52,1.8,.02,.02-2.45,6.8,.06-.02,2.45,1.9,.02,.02-2.44,6.8,.06-.02,2.44,1.9,.02,.02-2.44,6.8,.06-.02,2.44,1.8,.02,.02-2.38,6.8,.06-.02,2.38Zm7.84-2.98l-.63-1.57c-1.01-2.53-2.36-4.98-4.01-7.28-1.62-2.25-3.39-4.19-5.25-5.77-.77-.65-1.56-1.25-2.35-1.77-1.3-.86-2.65-1.57-4.02-2.1-.37-.14-.74-.27-1.1-.39-.18-.06-.36-.11-.54-.16-.36-.1-.71-.19-1.06-.27-.67-.15-1.35-.26-2.01-.32-.32-.03-.64-.05-.94-.06-.15,0-.3,0-.45,0h-.03c-.53,0-1.04,.02-1.51,.07-1.46,.15-2.94,.23-4.42,.22-1.48-.02-2.97-.12-4.42-.29-.47-.06-.98-.09-1.51-.1-.06,0-.12,0-.19,0-.1,0-.2,0-.29,0-.31,0-.62,.02-.94,.04-.66,.05-1.34,.14-2.02,.28-.35,.07-.7,.15-1.06,.25-.18,.05-.36,.1-.54,.15-.37,.11-.74,.23-1.11,.37-1.38,.51-2.74,1.19-4.05,2.03-.81,.51-1.61,1.1-2.39,1.73-1.9,1.55-3.7,3.46-5.35,5.68-1.59,2.13-2.91,4.4-3.94,6.76l-.67,1.53,.2-1.65c.85-6.94,3.85-13.37,8.45-18.1,5.45-5.74,12.46-8.73,20.26-8.67,7.36,.06,14.31,3.27,19.58,9.02,4.62,5.04,7.52,11.69,8.18,18.7l.16,1.68Zm-22.2-20.19c.1,0,.2,0,.3,0,.32,0,.64,.03,.97,.06,.68,.06,1.37,.17,2.07,.33,.36,.08,.72,.17,1.09,.27,.18,.05,.37,.11,.56,.17,.37,.12,.75,.25,1.13,.4,1.4,.55,2.78,1.27,4.11,2.15,.81,.54,1.62,1.15,2.4,1.81,1.9,1.61,3.69,3.58,5.33,5.86,1.33,1.85,2.47,3.81,3.4,5.83-.92-6.29-3.67-12.19-7.85-16.75-5.18-5.65-12.01-8.8-19.23-8.86-7.66-.07-14.54,2.88-19.9,8.52h0c-4.16,4.28-6.99,9.98-8.07,16.18,.92-1.85,2.03-3.64,3.29-5.34,1.68-2.25,3.51-4.19,5.44-5.77,.79-.65,1.61-1.24,2.43-1.77,1.34-.86,2.74-1.55,4.15-2.07,.38-.14,.76-.27,1.14-.38,.19-.06,.37-.11,.56-.16,.37-.1,.73-.18,1.09-.26,.7-.14,1.4-.24,2.08-.29,.33-.03,.66-.04,.97-.04,.16,0,.32,0,.47,0h.03c.55,0,1.07,.04,1.56,.1,1.43,.18,2.9,.27,4.36,.29,1.46,0,2.93-.06,4.37-.21,.49-.05,1.01-.08,1.56-.07,.07,0,.13,0,.19,0Z"/></g><path class="cls-2" d="M71.08,54.71c.06-1.35,.92-2.49,2.12-2.97v-1.43l-1.89-.02,.02-2.43-2.39-.02-.02,2.43-1.72-.02c.96,1.75,2.27,3.28,3.87,4.44Z"/><path class="cls-2" d="M64.34,50.24l-1.72-.02,.02-2.43-2.39-.02-.02,2.42-1.9-.02v1.29c1.22,.51,2.08,1.72,2.06,3.13h0c1.62-1.13,2.96-2.63,3.95-4.36Z"/><path class="cls-2" d="M36.19,44.88l.04-.17c-.01,.06-.03,.11-.04,.17Z"/><path class="cls-2" d="M61.79,82.48c.53,.22,1.07,.44,1.6,.66,.39,.16,.86-.16,.96-.54,.13-.44-.14-.8-.54-.96-.53-.22-1.07-.44-1.6-.66-.39-.16-.86,.16-.96,.54-.13,.44,.14,.8,.54,.96Z"/><path class="cls-2" d="M67.64,83.18l1.61-.63c.39-.15,.67-.51,.55-.95-.1-.37-.56-.71-.95-.55-.54,.21-1.07,.42-1.61,.63-.39,.15-.67,.51-.55,.95,.1,.37,.56,.71,.95,.55Z"/><path class="cls-2" d="M70.11,68.53c-.12,.16-.18,.37-.15,.57,.03,.2,.13,.38,.3,.51,.13,.1,.29,.16,.46,.16,.24,0,.47-.11,.62-.31,.34-.45,.9-.94,1.59-1.38,.51,1.28,1.77,2.19,3.2,2.2,1.92,.02,3.49-1.53,3.5-3.44,0-.08,0-.16-.01-.25,2.61,.59,2.99,2.22,3,2.29,.08,.41,.48,.69,.9,.61,.42-.08,.69-.48,.61-.9-.02-.12-.59-2.85-4.53-3.57-3.87-.7-8.07,1.63-9.5,3.52Z"/><path class="cls-2" d="M59.22,68.75c.42,.4,.96,.64,1.54,.7l.24,.02c0-.76-.31-1.48-.87-1.98-1.85-1.66-5.3-3.27-8.55-2.74-3.95,.65-4.57,3.37-4.59,3.49-.17,.96-.05,.94,.59,.91,.21,0,.41,0,.58-.11,.17-.11,.27-.28,.34-.48,.08-.23,.42-1.7,3.05-2.24,0,.08-.01,.16-.02,.25-.02,1.92,1.53,3.49,3.44,3.5,1.43,.01,2.7-.87,3.24-2.14,.39,.26,.74,.54,1.02,.81Z"/><path class="cls-2" d="M72.16,88.55c-1.11-.26-3.05-1.25-4.04-1.76-.57-.29-.69-.35-.78-.37-.33-.08-.84-.03-1.08,.27-.24,.3-.51,.36-.77,.36-.26,0-.52-.07-.76-.37-.23-.31-.75-.36-1.08-.29-.09,.02-.22,.08-.79,.36-1,.49-2.96,1.45-4.07,1.69-.33,.07-.64,.17-.93,.33l-.05,.03,.56,.34c.14,.07,3.8,1.72,7.1,.99,3.29,.79,6.98-.79,7.12-.87l.57-.33-.05-.03c-.29-.16-.6-.27-.93-.35Z"/><path class="cls-2" d="M68.78,91.13c-3.46,3.12-6.51,.09-6.64-.04-.3-.3-.79-.31-1.09,0-.3,.3-.31,.79,0,1.09,.08,.08,1.89,1.87,4.47,1.9,1.52,.01,2.96-.59,4.3-1.8,.31-.28,.34-.77,.06-1.09-.28-.32-.77-.34-1.09-.06Z"/><path class="cls-2" d="M131.35,47.87c-.47-1.29-1.66-2.2-2.95-2.45,.77-1.28,1.01-2.86,.46-4.34-.72-1.96-2.49-2.89-4.38-2.82,.7-1.79,.6-3.69-1.46-4.84-2.22-1.24-4.76,.36-6.21,2.04-2.04,2.36-3.75,4.88-6.05,7.03-1.58,1.47-3.27,2.81-5.01,4.08,.62-1.16,1.22-2.33,1.84-3.49,1.14-2.17,2.62-4.23,3.41-6.56,.71-1.75,1.19-4.1-.49-5.51-.87-.72-1.94-.79-2.92-.46-.62-2.52-3.78-3.43-5.72-1.65-.66-.65-1.52-1.05-2.49-.94-1.57,.19-2.69,1.45-2.74,3-.12,2.4,.75,4.75,.68,7.18-.08,2.63-.7,5.19-1.79,7.58h-.02c.08,.39,.38,1.76,.46,2.38h-.82l-.35,2.55-1.9-.02v1.29c1.22,.51,2.08,1.72,2.06,3.13-.02,1.85-1.53,3.34-3.39,3.33-1.85-.02-3.34-1.53-3.33-3.39,.01-1.41,.89-2.61,2.13-3.09v-1.29l-1.89-.02,.02-2.56-2.28-.02-.02,2.49-1.9-.02v1.37c1.22,.51,2.08,1.72,2.06,3.13-.02,1.85-1.53,3.34-3.39,3.33s-3.34-1.53-3.33-3.39c.01-1.41,.89-2.61,2.13-3.09v-1.37l-1.89-.02,.02-2.49-2.28-.02-.02,2.43-1.9-.02v1.43c1.22,.51,2.08,1.72,2.06,3.13,0,.87-.35,1.65-.89,2.24,1.8,.4,3.63,.7,5.3,1.38-3.92-.28-8.03,.99-10.89,3.69-.73,.69,.36,1.8,1.09,1.11,3-2.82,7.64-3.89,11.62-2.97,.33,.08,.6-.05,.77-.25,2.19,1.91,3.43,4.86,3.68,7.8,.29,3.43-.6,6.85-1.77,10.08-2.01,5.55-4.87,10.78-8.36,15.54-1.49,2.02-3.11,3.99-5.14,5.47-1.84,1.34-4.98,2.27-7.41,2.32-.06,0-.11,0-.17,0-.09,0-.19,0-.29,0-.1,0-.19,0-.29,0-.05,0-.11,0-.17,0-2.44-.09-5.56-1.07-7.37-2.45-2-1.52-3.59-3.51-5.04-5.56-3.41-4.82-6.18-10.1-8.09-15.69-1.11-3.25-1.94-6.69-1.59-10.11,.3-2.94,1.6-5.87,3.83-7.75,.15,.3,.46,.52,.87,.43,3.97-.85,8.56,.16,11.5,3.03,.72,.7,1.83-.39,1.11-1.09-2.94-2.86-7.25-4.1-11.31-3.71,1.83-.8,3.86-1.07,5.85-1.48-.6-.61-.97-1.45-.96-2.38,.01-1.41,.89-2.61,2.13-3.09v-1.29l-1.89-.02,.02-2.42-2.28-.02-.02,2.34-1.9-.02v1.37c1.22,.51,2.08,1.72,2.06,3.13-.02,1.85-1.53,3.34-3.39,3.33-1.85-.02-3.34-1.53-3.33-3.39,.01-1.41,.89-2.61,2.13-3.09v-1.37l-1.89-.02,.02-2.34-2.28-.02-.02,2.28-1.9-.02v1.43c1.22,.51,2.08,1.72,2.06,3.13-.02,1.85-1.53,3.34-3.39,3.33-1.85-.02-3.34-1.53-3.33-3.39,.01-1.41,.89-2.61,2.13-3.09v-1.43l-1.89-.02-.29-2.29h-.83c.07-.5,.46-2.2,.52-2.45-1.02-2.38-1.6-4.94-1.62-7.54-.02-2.43,.88-4.77,.81-7.17-.02-1.55-1.12-2.83-2.68-3.05-.96-.13-1.84,.26-2.51,.89-1.9-1.8-5.08-.95-5.75,1.55-.97-.35-2.05-.3-2.93,.41-1.71,1.38-1.26,3.74-.59,5.5,.74,2.34,2.18,4.44,3.29,6.62,.59,1.18,1.18,2.36,1.78,3.53-1.65-1.26-3.26-2.57-4.76-4-2.33-2.23-4.05-4.84-6.1-7.3-1.39-1.67-3.76-3.26-5.99-2.24-2.24,1.02-2.4,3.03-1.72,4.9-1.88-.11-3.67,.79-4.43,2.74-.58,1.47-.37,3.05,.38,4.35-1.27,.22-2.45,1.07-2.96,2.3-1.02,2.5,.31,5.4,2.58,6.66,3.14,1.74,6.78,.84,10.16,.84,2.03,0,3.97,.33,5.81,.96,.17,.18,.43,.27,.68,.25,.79,.31,1.57,.67,2.32,1.09-1.27,.2-2.53,.62-3.78,1.09-1.55,.58-3.18,1.19-4.86,.99-1.44-.17-2.66-1.02-4.08-1.26-1.86-.31-3.75,.62-4.05,2.61-.17,1.17,.36,2.21,1.22,2.84-.81,.79-1.22,1.96-.83,3.12,.35,1.04,1.23,1.73,2.24,1.97-.28,.71-.26,1.5,.16,2.29,.66,1.25,1.95,1.76,3.24,1.66-3.67,4.5-5.56,10.45-5.45,16.27,.17,9.56,5.05,18.26,11.66,24.91,.85,.85,1.76,1.62,2.73,2.31,.02,.07,.04,.13,.06,.17,.05,.13,.08,.15,.04,.04-.02-.06-.03-.11-.05-.17,5.14,3.62,11.85,5.05,18.04,4.68,9.54-.57,18.3-5.74,23.63-13.63,.31,.38,.6,.79,.87,1.22,.03,.05,.07,.09,.1,.13-2.78,7.97-10.15,14-18.56,15.03-.98,.12-1.01,1.68-.01,1.56,7.54-.93,14.26-5.43,18.07-11.86,.26,.13,.58,.12,.85-.14l2.13-2.09,2.09,2.12c.27,.27,.59,.28,.85,.16,3.7,6.5,10.33,11.12,17.86,12.18,.99,.14,.99-1.42,.01-1.56-8.39-1.19-15.65-7.35-18.29-15.38,.3-.48,.62-.94,.97-1.36,4.53,7,11.82,12.1,20.06,13.65,7.08,1.32,15.21,.24,21.36-3.73-.02,.08,0,.07,.03-.02,.27-.17,.53-.35,.79-.53,1.67-1.18,3.15-2.88,4.5-4.4,1.51-1.68,2.9-3.47,4.14-5.36,2.62-4.03,4.5-8.56,5.24-13.33,1.08-6.98-.46-14.4-4.82-19.91,1.3,.12,2.6-.36,3.28-1.6,.42-.78,.46-1.57,.2-2.29,1.01-.22,1.91-.89,2.27-1.93,.41-1.15,.02-2.34-.78-3.14,.85-.6,1.39-1.58,1.28-2.72-.2-2.05-2.11-3.07-4.01-2.79-1.28,.19-2.4,.9-3.66,1.15-1.72,.33-3.45-.31-5.03-.93-1.34-.52-2.67-1.02-4.03-1.26,.76-.41,1.54-.76,2.34-1.05,.25,.03,.52-.06,.7-.24,1.77-.57,3.62-.87,5.55-.86,3.48,.03,7.18,1.07,10.44-.65,2.26-1.2,3.64-4.02,2.73-6.52Zm-12.95-11.84c.05-.05,.11-.11,.17-.16-.36,3.07-.64,6.14-1.01,9.21-.95,.41-1.9,.83-2.84,1.28,0-1.86-.09-3.72-.04-5.58,0-.03,0-.06,0-.09,1.26-1.53,2.34-3.27,3.74-4.65Zm-5.82,18.31l-1.18-4.53c.89-.5,1.79-.97,2.7-1.43,1.23,1.73,2.47,3.45,3.7,5.18-1.8,.05-3.54,.3-5.22,.77Zm3.02,10.44s0,.03,.02,.05c.96,2,1.87,4.02,2.82,6.02-.52-.52-1.07-1.02-1.65-1.49-.9-.73-1.87-1.38-2.88-1.95-.37-1.07-.75-2.14-1.12-3.21,.95,.17,1.89,.36,2.82,.58Zm7.59,18.44c-3.65-.74-7.34-1.18-11.07-1.3-.58-.96-1.21-1.89-1.89-2.79,3.68-.71,7.39-1.1,11.14-1.16,.04,0,.08,0,.12-.01,.77,1.67,1.34,3.45,1.7,5.27Zm-2.05,16.66c-1.55-1.43-3.09-2.85-4.64-4.28-.07-.96-.18-1.91-.34-2.85,2.17,.95,4.33,1.91,6.5,2.86-.4,1.47-.92,2.89-1.52,4.27Zm-24.7-43.34c.33-.59,.66-1.19,.98-1.79,0,.83,.04,1.67,.38,2.39-.03,.12-.03,.24,.02,.37-.5,.44-1,.89-1.49,1.35,.05-.76,.1-1.53,.12-2.31Zm10.95-16.19c-1.45,.08-2.89,.15-4.34,.23,.25-.91,.47-1.83,.67-2.74,1.84-.22,3.66-.51,5.47-.89-.49,1.17-1.14,2.29-1.8,3.4Zm-.88,10.6c.11-1.15,.36-2.27,.75-3.38,.03-.07,.04-.14,.04-.21,.72-.54,1.43-1.09,2.12-1.65-.02,1.12,.04,2.23,.17,3.35-1.04,.6-2.07,1.23-3.08,1.89Zm-1.63,1.08c-.79,.54-1.57,1.09-2.33,1.66-.11-1.37,.31-2.72,1.28-3.8,.01-.01,.02-.03,.03-.04,.03-.02,.06-.05,.09-.07,.44-.31,.89-.62,1.33-.93-.24,1.05-.37,2.11-.39,3.19Zm9.42,17.43c-3.21,.93-6.24,2.34-9.02,4.22-.02,.02-.04,.04-.07,.05-1.17-1.02-2.39-1.99-3.63-2.92,1.64-1.76,3.6-3.14,5.85-4.05,2.44,.42,4.79,1.34,6.87,2.7Zm-15.56-29.41c.77,.52,1.53,1.05,2.3,1.57-.29,.93-.6,1.86-.93,2.77-.67-.48-1.3-1.01-1.9-1.59,.24-.9,.42-1.82,.53-2.75Zm.42,16.31c-.37-.82-.2-1.95-.14-2.79,.05-.83,.18-1.64,.35-2.45,.11-.03,.22-.09,.3-.17,.07,.02,.15,.03,.23,.02,.55-.04,1.08-.13,1.6-.26-.54,1.27-.68,2.67-.36,4.04-.67,.52-1.33,1.05-1.98,1.6Zm-.46,2.45c.79,1.03,1.68,1.95,2.67,2.77-1.78-.04-3.54-.03-5.3,.03,.01-.13,.03-.26,.04-.39,.84-.82,1.7-1.62,2.58-2.4Zm1.63,11.09c-.89-.65-1.78-1.29-2.67-1.94,1.95-.95,4.34-1.36,6.13-1.43,.23,0,.47-.01,.7-.01-1.55,.91-2.94,2.04-4.17,3.38Zm-2.1-3.86c.38-.98,.76-1.95,1.14-2.93,.95,0,1.9,.02,2.86,.05-.16,.67-.33,1.34-.49,2.01-1.15,.17-2.36,.45-3.51,.87Zm-2.33-2.88c.6-.02,1.2-.03,1.8-.04l-1.51,3.87c-.3,.18-.59,.37-.87,.58,.18-1.39,.39-2.86,.57-4.4Zm-1.03,8.53c.04-.52,.09-1.05,.15-1.61,.33-.47,.74-.89,1.22-1.26,.85,.63,1.71,1.25,2.57,1.87-1.36,.28-2.67,.7-3.95,1.26,0-.09,0-.18,.01-.27Zm11.77-8.28l.17,1.69c-1.08-.13-2.16-.18-3.25-.12-.06,0-.11,0-.17,.01,.14-.59,.29-1.18,.43-1.77,.94,.05,1.88,.11,2.81,.19Zm-3.56-2.48c-1.23-.9-2.28-1.93-3.2-3.14,.62-.52,1.25-1.03,1.89-1.54,.69,1.08,1.61,1.73,2.7,2.04-.54,.84-1,1.72-1.39,2.63Zm-.24-12.25c-.93,.35-1.86,.65-2.86,.73,.4-.92,.77-1.86,1.13-2.8,.02,0,.05-.02,.07-.03,.09,.03,.19,.05,.3,.05l2.56-.11c-.39,.72-.79,1.44-1.2,2.15Zm-1.33-8.62l-2.62-1.79c.03-.96,0-1.92-.11-2.87-.06-.6-.18-1.2-.29-1.79,1.25,1.24,2.6,2.38,3.73,3.74-.21,.91-.45,1.81-.71,2.71Zm-4.65,6.5c.32-.69,.59-1.39,.84-2.1,.59,.52,1.21,1.01,1.86,1.45-.37,1-.75,1.99-1.16,2.97-.63-.53-1.17-1.15-1.61-1.87-.04-.07-.1-.13-.15-.18,.09-.06,.16-.16,.22-.28Zm-1.74,26.98c1.72-.82,3.54-1.34,5.43-1.57,1.18,.88,2.33,1.78,3.44,2.74-2.73,.64-5.37,1.55-7.93,2.73-.06,.03-.11,.06-.15,.09-.15-.35-.28-.69-.4-1.05-.13-.38-.24-.77-.34-1.15-.14-.57-.23-1.14-.29-1.73,.08-.01,.16-.03,.24-.07Zm1.71,5.26c2.74-1.27,5.6-2.19,8.56-2.8,.09,.08,.18,.16,.26,.25,.74,.74,1.45,1.51,2.12,2.3-3.16,.95-6.27,2.08-9.32,3.36-.36-.51-.71-1.02-1.04-1.53-.23-.36-.45-.72-.65-1.09-.08-.14-.15-.27-.22-.41,.09,0,.19-.03,.29-.07Zm11.99,1.06c.68,.89,1.32,1.82,1.91,2.78-2.99,1.15-5.97,2.3-8.96,3.45h0c-.82-.98-1.61-1.95-2.36-2.91,3.08-1.28,6.22-2.38,9.41-3.32Zm14.65,5c.2,1.48,.26,2.98,.2,4.48-3.05-1.2-6.15-2.21-9.32-3.02h-.01c-.09-.21-.17-.43-.26-.64-.32-.73-.67-1.45-1.04-2.16,3.5,.16,6.96,.6,10.4,1.34,.01,0,.02,0,.04,0Zm-11.95-.86c.27,.5,.54,1.01,.79,1.53,.2,.43,.4,.87,.58,1.31-2.51,1.23-5.03,2.45-7.54,3.68h-.01c-.06-.07-.12-.15-.18-.23-.15-.2-.3-.39-.45-.58-.63-.8-1.26-1.58-1.89-2.34,2.9-1.12,5.81-2.24,8.71-3.36Zm1.92,4.3c.32,.93,.6,1.88,.83,2.84l-6.14,3.5c-.18-.3-.36-.6-.55-.9-.42-.66-.86-1.31-1.31-1.94,2.39-1.17,4.78-2.33,7.17-3.5Zm1.16,4.45c.17,.94,.29,1.89,.36,2.84-1.62,1.06-3.14,2.28-4.75,3.34-.02-.06-.04-.12-.07-.18-.15-.38-.3-.75-.46-1.11-.25-.56-.52-1.1-.8-1.64,1.91-1.09,3.81-2.17,5.72-3.26Zm-3.18,10.76c-.01-.09-.02-.17-.04-.26-.13-.77-.3-1.52-.5-2.24-.05-.19-.11-.37-.16-.56,1.48-.96,2.87-2.05,4.32-3.05,.02,1.03-.02,2.06-.12,3.08v.02c-.13,.03-.25,.08-.36,.18-1.05,.94-2.1,1.88-3.15,2.82Zm4.37-12.6c-.22-.95-.48-1.88-.79-2.8,2.9,.79,5.75,1.74,8.55,2.86-.04,.41-.09,.81-.15,1.21-.1,.65-.22,1.29-.36,1.92l-7.25-3.19Zm-6.64-13.13c-.65-.78-1.33-1.53-2.04-2.25-.24-.24-.48-.47-.73-.7,2.93-1.93,6.11-3.32,9.52-4.17,1.99,1.63,3.58,3.61,4.8,5.79-3.89,.1-7.75,.55-11.56,1.33Zm1.89-13.85l.89,2.54c-1.14-.48-2.33-.85-3.54-1.1-.06-.6-.12-1.2-.18-1.8,.95,.1,1.9,.22,2.84,.37Zm-6.6-2.23c.39-.95,.87-1.85,1.44-2.72,1.2-.42,2.33-.43,3.44-.24-.95,1.03-1.91,2.06-2.86,3.1-.67-.05-1.34-.1-2.01-.14Zm2.59-4.76c-1.77,.24-3.14-.18-4.03-1.64,.78-.58,1.57-1.15,2.37-1.7,.52,1.16,1.37,2.16,2.46,2.83-.27,.16-.53,.33-.8,.51Zm2.36-1.37c-.06-.06-.13-.12-.23-.17-1.16-.58-2.03-1.5-2.49-2.69,1.09-.72,2.2-1.42,3.33-2.08,.37,1.4,.73,2.8,1.1,4.2-.58,.22-1.15,.46-1.71,.74Zm3.72-13.18c.02,1.55,.08,3.11,.05,4.66,0,.03,0,.05,0,.08-.71,.36-1.42,.73-2.11,1.11-.12-1.3-.12-2.6,0-3.91,.71-.63,1.4-1.27,2.06-1.95Zm-8.24,2.55c-1.07,.05-2.15,.09-3.22,.14,.34-.96,.65-1.93,.95-2.91,1.28-.07,2.57-.14,3.85-.2-.15,.26-.29,.52-.43,.78-.38,.73-.77,1.47-1.15,2.2Zm-3.69-14.43c.31,.5,1.03,.52,1.34,.01,1.2-1.92,3.77-.95,3.61,1.24-.05,.75,.84,.93,1.32,.56,.9-.69,2.09-.46,2.51,.65,.28,.76,.14,1.51-.11,2.24-1.92,.44-3.86,.78-5.81,1.03,.17-.93,.32-1.86,.44-2.78h0s0-.06,.01-.1c.02-.13,.04-.26,.05-.39,0-.03,0-.05,0-.08,.02-.21,.02-.43-.05-.67-.1-.38-.45-1.68-.45-1.68l-.55,.8c-.26,.47-.43,.99-.49,1.52,0,.03-.02,.06-.02,.09-.1,.83-.23,1.66-.38,2.48-1.42-1.51-3.06-2.81-4.38-4.42,0,0-.01-.01-.02-.02,0-.01,0-.02,0-.03,.05-1.77,2.2-1.75,2.98-.47Zm-5.45,16.23h.01v0Zm2.01,3.64c-.42,.95-.85,1.89-1.31,2.82-.05-1.47-.17-2.97-.38-4.49,.49,.63,1.06,1.19,1.69,1.67Zm-15.41,38.72c-1.07,9.23,12.61,11.43,17.59,11.06,11.84-.87,10.78,4.68,10.75,8.85-.02,1.9-.51,5.17-1.96,6.26,.12-.06,.26-.13,.4-.19-.19,.12-.39,.24-.59,.36v-.03c.06-.04,.13-.09,.19-.14-.08,.04-.15,.08-.22,.11-4.42-9.53-14.42-16.21-24.81-16.49-6.83-1.08-4.29-4.73-1.35-9.79Zm21.59,28.33c-.22-.69-.44-1.39-.66-2.08,.69,.4,1.5,.59,2.3,.53-.36-.72-.88-1.35-1.51-1.85l1.61-.66c.55,.89,1.04,1.82,1.48,2.77-1.04,.49-2.12,.9-3.14,1.25-.02,0-.05,.02-.07,.02Zm-4.24,1.07c-.22-1.94-.44-3.87-.67-5.81,.74,.43,1.47,.87,2.2,1.32,0,.03,.01,.07,.02,.1,.4,1.25,.8,2.51,1.2,3.76-.91,.25-1.83,.46-2.75,.62Zm-14.87-1.23c-.96-.35-1.89-.74-2.81-1.18,1.67-2.87,3.17-5.82,4.5-8.86,.71,.22,1.41,.45,2.11,.7-.02,.03-.04,.07-.06,.1-1.23,2.98-2.46,5.96-3.69,8.95-.04,.11-.06,.2-.06,.3Zm-6.29-3.19c1.59-2.59,3.18-5.18,4.76-7.77,.58,.15,1.15,.3,1.72,.46-1.3,2.94-2.76,5.81-4.38,8.59-.72-.4-1.42-.83-2.1-1.28Zm-3.48-2.72c1.59-1.91,3.18-3.82,4.76-5.73,.02-.03,.04-.05,.05-.08,.61,.12,1.23,.25,1.84,.39l-4.44,7.24c-.76-.57-1.5-1.18-2.21-1.82Zm-5.2-6.22c.26-.26,.54-.5,.82-.73,1.16,.06,2.32,.15,3.47,.28l-2.85,2.54c-.51-.68-.99-1.37-1.44-2.09Zm-10.54,1.98c-.93-.86-1.86-1.73-2.8-2.59,1.11-.1,2.24-.17,3.37-.21,.3,.25,.59,.52,.87,.8-.45,.69-.93,1.36-1.44,2Zm-6.11,5.78c-1.43-2.42-2.85-4.84-4.28-7.26,.61-.13,1.22-.25,1.84-.36,.02,.03,.03,.05,.05,.08,1.54,1.93,3.09,3.85,4.63,5.78-.72,.62-1.47,1.21-2.25,1.75Zm-3.43,2.09c-1.55-2.78-2.94-5.63-4.17-8.57,.57-.15,1.15-.3,1.73-.43,1.53,2.59,3.05,5.18,4.58,7.77-.69,.44-1.41,.85-2.13,1.23Zm-9,3.03c-.54-3.12-1.08-6.24-1.61-9.35,0-.05-.02-.1-.04-.14,.46-.18,.93-.35,1.4-.52h0c1.18,3.01,2.35,6.01,3.53,9.01,.03,.09,.08,.16,.13,.22-1.12,.33-2.26,.59-3.41,.78Zm-17.46-2.64c1.12-2.3,2.55-4.42,4.24-6.31,.93,.62,1.87,1.24,2.8,1.87-1.21,.68-2.41,1.41-3.59,2.17-.79,.51-1.43,1.22-1.87,2.05,.9,.08,1.8-.15,2.55-.64,1.33-.87,2.68-1.68,4.05-2.44-.26,1.95-.52,3.91-.78,5.86-2.54-.48-5.03-1.33-7.4-2.57Zm7.78-9.64v.02c.99,1.08,1.97,2.17,2.95,3.25-.72,.34-1.44,.7-2.15,1.08-1.09-.72-2.17-1.45-3.26-2.17,.78-.77,1.6-1.5,2.46-2.18Zm1.16,12.37l.91-6.9s0-.01,0-.02c.6-.31,1.2-.6,1.81-.89,.02,2.71,.03,5.41,.05,8.12-.93-.03-1.86-.1-2.79-.22,0-.03,.01-.05,.02-.08Zm3.27-9.78l-3.17-3.51c1.33-.92,2.75-1.72,4.23-2.39l.96,5.04c-.68,.28-1.35,.56-2.02,.86Zm14.24-4.45c.74-1.12,1.57-2.18,2.47-3.15,.53,.11,1.06,.24,1.58,.4-.7,.81-1.39,1.61-2.09,2.42-.66,.1-1.31,.22-1.96,.34Zm-2.15-3.66c.94,.01,1.88,.08,2.82,.2-1.03,1.21-1.97,2.52-2.76,3.89-.67,.15-1.34,.31-2.01,.48,.37-1.64,1.01-3.16,1.96-4.57Zm-1.85,.04c-.89,1.54-1.49,3.22-1.77,4.99-.69,.2-1.37,.4-2.04,.62,.12-1.8,.46-3.6,1-5.32,.92-.14,1.86-.24,2.82-.29Zm-5.4,6.15c-.45,.16-.89,.32-1.34,.49-.32-1.67-.64-3.35-.95-5.02,0-.02,0-.03-.01-.04,1.03-.39,2.09-.7,3.17-.95-.5,1.79-.79,3.67-.86,5.52Zm5.21,10.2c-1.18-3-2.35-6.01-3.53-9.01-.01-.04-.03-.07-.05-.1,.7-.23,1.41-.45,2.13-.66,1.26,3.03,2.69,5.97,4.28,8.83-.91,.42-1.83,.79-2.77,1.11,0-.05-.02-.11-.05-.17Zm9.83-14.94h0c.85,.33,1.67,.73,2.45,1.19-1.27,.09-2.53,.2-3.79,.36l1.34-1.55Zm32.42-.72c.51,1.73,.81,3.53,.9,5.33-.67-.23-1.35-.45-2.03-.66-.25-1.78-.82-3.46-1.68-5.02,.9,.06,1.79,.17,2.65,.32,.05,0,.11,.02,.16,.03Zm-8.83,2.83c-.69-.83-1.38-1.66-2.08-2.49,.52-.14,1.05-.26,1.59-.36,.89,1,1.71,2.08,2.44,3.22-.65-.13-1.3-.26-1.95-.37Zm4.04,.84c-.77-1.39-1.69-2.72-2.7-3.95,.94-.1,1.89-.14,2.83-.14,.92,1.43,1.54,2.96,1.88,4.61-.66-.18-1.33-.36-2-.52Zm-10.28-1.65c.82-.47,1.67-.86,2.57-1.18,.01,.02,.02,.03,.03,.05l1.31,1.57c-1.29-.18-2.6-.33-3.91-.44Zm17.55,3.87c-.04-1.85-.3-3.73-.76-5.53,1.08,.27,2.13,.6,3.15,1.01,0,.01,0,.02-.01,.03-.35,1.67-.7,3.33-1.04,5-.44-.18-.89-.35-1.33-.51Zm3.84-3.9c1.47,.69,2.87,1.51,4.18,2.46-1.07,1.15-2.15,2.3-3.22,3.45-.66-.31-1.33-.61-2-.9l1.04-5.01Zm8.41,10.03c-.77-.5-1.55-.97-2.33-1.43,.94-.61,1.89-1.21,2.83-1.82,.64,.74,1.24,1.51,1.79,2.31-.76,.31-1.53,.62-2.29,.94Zm-3.86-2.3c-.7-.39-1.41-.76-2.13-1.11,1-1.07,1.99-2.13,2.99-3.2h.01c.85,.68,1.66,1.42,2.42,2.2l-3.29,2.11Zm-3.08,.15c.6,.3,1.2,.6,1.79,.92,0,0,0,.01,0,.02l.79,6.92v.02c-.92,.11-1.85,.18-2.78,.21,.06-2.7,.13-5.4,.19-8.09Zm-47.06-22.05c.17,.43,.5,1.01,.94,1.68,2.6,4.68,3.86,7.85-4.62,8.28,.17-.01,.35-.02,.54-.02-5.66,.49-11.31,2.68-15.42,5.92-3.38,2.67-6.11,6.1-7.99,9.97-.13-.08-.27-.16-.4-.25-1.33-1.21-1.74-4.34-1.72-6.18,.04-4.17-.92-9.73,10.9-8.65,4.97,.45,18.68-1.5,17.78-10.75Zm-38.25,11.59s.06-.04,.1-.07c1.29-1.14,2.57-2.29,3.86-3.43-.02,.98,.01,1.96,.09,2.93-.81,1.21-1.62,2.41-2.42,3.62-.59-.99-1.13-2.01-1.62-3.05Zm-2.1-5.79c2.18-.91,4.37-1.83,6.55-2.74-.17,.94-.3,1.89-.39,2.85-1.57,1.4-3.15,2.8-4.72,4.2-.58-1.4-1.07-2.83-1.44-4.31Zm1.48-17.63s.08,.01,.12,.02c3.75,.13,7.45,.58,11.12,1.36-.69,.89-1.34,1.81-1.94,2.76-3.72,.05-7.42,.43-11.09,1.1,.39-1.81,.98-3.57,1.79-5.23Zm6.1-13.02s.01-.03,.02-.05c.94-.2,1.88-.38,2.83-.53-.39,1.06-.78,2.11-1.17,3.17-.12,.06-.24,.12-.35,.19-1.57,.87-2.98,1.94-4.24,3.16,.97-1.98,1.93-3.97,2.91-5.95Zm-1.99-11.3c1.27-1.7,2.53-3.41,3.8-5.11,.9,.47,1.8,.96,2.68,1.47-.42,1.5-.84,3-1.26,4.51-1.68-.51-3.41-.78-5.21-.86Zm8.92-16.47c1.8,.41,3.62,.74,5.45,.99,.18,.92,.39,1.84,.62,2.75l-4.33-.31c-.64-1.12-1.27-2.26-1.74-3.44Zm12.16,9.83c.06,.13,.13,.22,.22,.29-.05,.05-.11,.1-.15,.18-.45,.71-1,1.32-1.64,1.84-.39-.99-.76-1.99-1.11-2.99,.66-.43,1.29-.91,1.89-1.42,.23,.71,.5,1.42,.8,2.11Zm.17,9.87c.01,.8,.04,1.59,.08,2.37-.46-.44-.93-.88-1.4-1.31,.05-.13,.05-.26,.02-.37,.35-.71,.41-1.55,.42-2.38,.29,.57,.58,1.13,.88,1.69Zm-13.95,40.97c-.17,.36-.33,.73-.48,1.1-.02,.05-.04,.1-.06,.14-1.58-1.09-3.06-2.32-4.65-3.39,.09-.95,.23-1.89,.41-2.83,1.87,1.11,3.74,2.22,5.61,3.33-.29,.54-.58,1.09-.84,1.65Zm-4.41-11.4c-3.18,.76-6.3,1.71-9.36,2.85-.03-1.5,.05-3,.27-4.47,0,0,.02,0,.03,0,3.44-.67,6.92-1.05,10.42-1.15-.39,.7-.75,1.41-1.08,2.14-.1,.21-.18,.42-.27,.63h-.01Zm6.57,7.54c-.19,.28-.37,.57-.55,.86-2.01-1.19-4.02-2.39-6.03-3.58,.24-.96,.54-1.9,.88-2.83,2.35,1.2,4.71,2.4,7.06,3.6-.47,.63-.92,1.28-1.36,1.94Zm2.49-3.41c-.06,.07-.11,.14-.17,.21-2.48-1.27-4.96-2.53-7.44-3.8,.19-.44,.39-.87,.6-1.3,.26-.51,.53-1.02,.81-1.52,2.87,1.17,5.74,2.33,8.61,3.5-.65,.76-1.31,1.53-1.95,2.33-.16,.19-.31,.38-.46,.58Zm3.48-4.14c-2.95-1.2-5.91-2.4-8.86-3.6,.6-.95,1.26-1.87,1.96-2.75,3.16,.99,6.27,2.14,9.31,3.47-.76,.95-1.57,1.91-2.41,2.88Zm3.38-4.14c-3.01-1.32-6.08-2.49-9.21-3.5,.69-.78,1.41-1.54,2.16-2.26,.09-.08,.18-.16,.26-.24,2.95,.66,5.79,1.63,8.51,2.95,.08,.04,.15,.06,.23,.07-.08,.14-.15,.28-.23,.42-.21,.36-.43,.72-.67,1.08-.33,.5-.68,1-1.05,1.49Zm-6.63-8.32c-2.75-1.92-5.74-3.39-8.93-4.37,2.09-1.32,4.44-2.21,6.89-2.58,2.23,.95,4.17,2.37,5.79,4.16-1.26,.91-2.5,1.85-3.68,2.85-.02-.02-.04-.04-.06-.06Zm1.65-10.44l.4,1.78c-1.14-.09-2.29-.07-3.42,.05l.2-1.69c.94-.06,1.88-.11,2.82-.14Zm5.49-23.07c.1,.94,.26,1.86,.48,2.76-.61,.57-1.25,1.08-1.93,1.55-.31-.92-.6-1.85-.88-2.79,.77-.51,1.55-1.02,2.32-1.53Zm-1.04,23.04c.37,.99,.73,1.98,1.1,2.98-1.18-.46-2.4-.77-3.5-.96l-.46-2.02c.95-.01,1.91-.01,2.86,0Zm1.64,4.86c-.9,.64-1.82,1.27-2.72,1.91-1.2-1.37-2.58-2.52-4.11-3.46,2.06,.04,4.73,.47,6.83,1.55Zm1.4,.9c.43,.35,.81,.74,1.11,1.18,.05,.59,.1,1.17,.13,1.72,0,.08,0,.16,0,.24-1.25-.57-2.53-1-3.86-1.3,.87-.61,1.75-1.22,2.61-1.83Zm.08-1.79c-.49-1.31-.97-2.62-1.46-3.93,.58,.02,1.16,.04,1.74,.07,.16,1.53,.33,3,.49,4.39-.25-.19-.51-.36-.78-.53Zm.14-5.43c-1.73-.08-3.48-.12-5.23-.12,1.01-.8,1.91-1.7,2.72-2.72,.85,.77,1.67,1.57,2.47,2.38,.01,.15,.03,.31,.04,.46Zm-3.57-10.69c.09,0,.16,0,.23-.02,.09,.08,.19,.14,.3,.18,.15,.81,.26,1.62,.3,2.45,.04,.82,.19,1.96-.19,2.78-.64-.55-1.29-1.1-1.95-1.63,.34-1.37,.23-2.77-.29-4.05,.52,.13,1.05,.24,1.6,.28Zm-1.95,5.24c.63,.51,1.25,1.04,1.86,1.57-.94,1.19-2.01,2.21-3.25,3.08-.37-.92-.82-1.81-1.34-2.66,1.09-.29,2.03-.93,2.73-2Zm5.43,21.36s-.06-.04-.1-.06c-2.53-1.23-5.16-2.19-7.88-2.87,1.12-.94,2.29-1.83,3.49-2.68,1.88,.26,3.69,.81,5.4,1.66,.06,.03,.12,.05,.18,.06-.06,.59-.17,1.17-.32,1.74-.1,.39-.22,.77-.36,1.15-.12,.34-.26,.67-.41,1.01Zm-2.08-42.16c-.12,.95-.17,1.91-.16,2.87-.89,.58-1.77,1.16-2.66,1.75-.24-.9-.47-1.81-.66-2.73,1.15-1.34,2.53-2.46,3.8-3.68-.12,.59-.25,1.19-.32,1.79Zm-2.89,11.19c.11,0,.22,0,.3-.04,.02,0,.04,.02,.07,.03,.34,.95,.7,1.89,1.08,2.82-1-.1-1.92-.42-2.85-.78-.4-.72-.79-1.44-1.16-2.17l2.56,.15Zm-2.54,3.09s.06,.05,.09,.08c.01,.01,.02,.03,.03,.04,.95,1.1,1.34,2.45,1.21,3.82-.76-.58-1.52-1.15-2.3-1.7,0-1.08-.12-2.15-.34-3.2,.44,.32,.87,.64,1.31,.95Zm-3.27-2.25c.37,1.12,.59,2.24,.69,3.39-1-.67-2.02-1.32-3.05-1.94,.16-1.12,.24-2.23,.23-3.35,.69,.58,1.38,1.14,2.09,1.69,0,.07,.01,.14,.04,.21Zm-2.8,3c1.12,.68,2.21,1.39,3.29,2.14-.48,1.18-1.36,2.09-2.53,2.65-.1,.05-.17,.1-.23,.17-.56-.29-1.13-.54-1.7-.77l1.17-4.18Zm4.58,3.05c.79,.57,1.57,1.15,2.34,1.75-.92,1.44-2.29,1.84-4.06,1.57-.26-.18-.52-.36-.79-.52,1.1-.66,1.96-1.64,2.51-2.79Zm-.6,5.37c.56,.88,1.02,1.79,1.39,2.74-.67,.03-1.34,.06-2.02,.11l-2.81-3.15c1.11-.17,2.24-.14,3.43,.3Zm-2.62,6.34c-1.21,.23-2.41,.57-3.56,1.02,.31-.84,.62-1.67,.93-2.51,.94-.12,1.89-.23,2.84-.32-.07,.6-.14,1.2-.22,1.8Zm-9.15,6.51c.49-.48,1.01-.93,1.54-1.35,3.39,.91,6.54,2.36,9.43,4.33-.25,.23-.5,.45-.74,.69-.72,.71-1.41,1.45-2.08,2.22-3.8-.85-7.65-1.37-11.54-1.54,.92-1.57,2.04-3.03,3.38-4.35Zm-6.45,18.81c2.81-1.06,5.67-1.96,8.58-2.7-.32,.92-.61,1.85-.84,2.79l-7.3,3.06c-.21-1.04-.35-2.09-.44-3.15Zm8.46,9.7v-.02c-.09-1.03-.11-2.06-.08-3.08,1.42,1.01,2.77,2.12,4.22,3.09-.06,.19-.13,.39-.18,.59-.21,.72-.39,1.47-.54,2.23-.01,.07-.02,.14-.04,.21-1.01-.94-2.03-1.89-3.04-2.83-.11-.1-.22-.16-.34-.19Zm19.23-47.09c-.42-.9-.82-1.8-1.21-2.72,.61-.45,1.16-.96,1.65-1.54-.23,1.44-.37,2.86-.44,4.26Zm-13.1-20.33c.49-1.01,1.6-1.35,2.52-.61,.47,.38,1.37,.21,1.33-.54-.12-2.2,2.46-3.12,3.63-1.18,.31,.51,1.03,.51,1.34,.01,.8-1.26,2.95-1.28,2.97,.52,0,.01,0,.02,0,.03,0,0-.01,.01-.02,.02-1.34,1.59-3.01,2.86-4.46,4.34-.14-.83-.26-1.65-.34-2.49,0-.03-.01-.06-.02-.09-.06-.53-.22-1.05-.47-1.53l-.54-.81s-.37,1.3-.48,1.67c-.07,.24-.07,.46-.06,.67,0,.03,0,.05,0,.08,.01,.13,.03,.26,.04,.39,0,.03,0,.06,0,.1h0c.1,.93,.23,1.86,.39,2.79-1.95-.28-3.88-.66-5.8-1.13-.25-.74-.41-1.53-.07-2.24Zm3.35,9.04c1.28,.09,2.56,.18,3.85,.27,.27,.98,.57,1.96,.89,2.93-1.07-.06-2.14-.13-3.22-.19-.37-.74-.74-1.48-1.11-2.22-.13-.26-.27-.53-.41-.79Zm-4.64,2.29c.09,1.31,.07,2.61-.07,3.91-.69-.4-1.39-.78-2.09-1.15,0-.03,0-.05,0-.08,0-1.56,.08-3.11,.13-4.66,.65,.69,1.33,1.34,2.03,1.98Zm-3.55-3.71s0,.06,0,.09c0,1.86-.12,3.72-.14,5.58-.93-.47-1.87-.9-2.82-1.33-.32-3.07-.55-6.15-.85-9.22,.06,.05,.11,.11,.16,.16,1.38,1.41,2.42,3.16,3.66,4.72ZM2.45,50.93c-.79-.97-1.22-2.68-.62-3.85,.57-1.11,2.04-1.65,3.12-.98,.86,.54,1.62-.77,.8-1.34-1.32-.91-1.96-2.65-1.39-4.18,.68-1.83,2.5-2.14,4.16-1.54,.65,.23,1.23-.58,.89-1.14-.86-1.43-1.58-3.65,.62-4.28,.54-.16,1.1-.06,1.62,.17,0,.06-.01,.12,0,.19,.33,3.15,.56,6.32,.88,9.47-1.04-.43-2.09-.85-3.14-1.23h-.02c-.52-.2-1.07-.29-1.63-.27l-.96,.13s.98,.92,1.29,1.16c.25,.19,.56,.35,.87,.48h.01l.02,.02c.06,.03,.12,.05,.18,.07h0c.9,.32,1.79,.68,2.68,1.05-2.25,2.68-4.69,5.18-7.32,7.5-.8-.29-1.52-.73-2.08-1.42Zm3.96,1.82c2.44-2.21,4.71-4.59,6.81-7.12,.04-.05,.07-.09,.1-.14,.95,.42,1.9,.87,2.83,1.33-1.44,1.94-2.88,3.87-4.31,5.81-.45,.01-.9,.03-1.36,.06-1.23,.08-2.68,.2-4.06,.06Zm14.03,5.62v.02l2.57,2.87c-.99,.09-1.97,.2-2.96,.33l-2.75-2.12c1.06-.35,2.1-.77,3.14-1.09Zm-5.65,1.67c.21-.02,.41-.05,.62-.09h.01l2.51,1.95c-1.01,.17-2.02,.37-3.02,.59-1.16-.84-2.23-1.78-3.21-2.81,.98,.31,1.95,.49,3.09,.36Zm-4.87,7.44c.61-.47-.04-1.56-.75-1.31-2.22,.79-3.13-2.41-.77-2.86,.89-.17,.66-1.5-.19-1.53-1.16-.05-2-1.4-1.29-2.4,.47-.66,1.23-.73,1.97-.61h0c1.19,1.57,2.56,2.96,4.08,4.19-.35,.09-.7,.18-1.04,.28-.53,.15-1.03,.42-1.46,.76l-.7,.68s1.34,.15,1.73,.16,.82-.09,1.21-.2c.36-.1,.72-.19,1.08-.28-.95,1.92-1.87,3.86-2.83,5.77-1.49-.03-2.67-1.41-1.05-2.64Zm3.27,38.02c-.14-.21-.28-.41-.42-.62,.6-.9,1.2-1.79,1.8-2.69,.28,1.78,.72,3.54,1.33,5.25,.31,.85,.92,1.57,1.71,2.02l.06-.51c.07-.59,0-1.19-.21-1.75-.65-1.73-1.11-3.53-1.4-5.36,.86,.8,1.71,1.59,2.57,2.39,.1,.09,.21,.15,.32,.18-.08,.81-.12,1.65-.12,2.51h0c.01,1.88,.23,3.88,.71,6.03-2.47-2.03-4.63-4.93-6.36-7.45Zm23.38,12.92c-.02-2.94-.04-5.89-.05-8.83,.38-.17,.76-.33,1.14-.49,.52,3.04,1.05,6.09,1.58,9.13-.88,.1-1.77,.16-2.66,.19Zm20.02-8.33c-1.36-1.7-2.73-3.4-4.09-5.1,.68-.1,1.36-.19,2.04-.27,.04,.1,.1,.19,.2,.28,1.17,1.08,2.34,2.17,3.51,3.25,.02,.02,.04,.03,.06,.05-.55,.62-1.12,1.22-1.72,1.79Zm7.17-.64c.08-.2,.16-.4,.24-.59l.18,.18-.42,.41Zm2.63-.39l.19-.18c.07,.2,.15,.4,.23,.6l-.41-.42Zm5.86-.63s.05-.03,.07-.05c1.19-1.06,2.38-2.12,3.57-3.19,.1-.09,.16-.18,.2-.28,.68,.09,1.36,.19,2.03,.31-1.4,1.68-2.8,3.37-4.2,5.05-.58-.59-1.14-1.2-1.68-1.84Zm13.9,9.27c.09-.08,.17-.18,.23-.31,1.23-2.98,2.46-5.96,3.69-8.95h0c.46,.17,.93,.35,1.39,.54-.02,.04-.03,.09-.04,.14-.6,3.13-1.2,6.27-1.79,9.4-1.18-.2-2.34-.48-3.47-.83Zm5.01,1.05c.58-3.05,1.16-6.1,1.75-9.16,.38,.16,.75,.33,1.13,.51-.07,2.94-.14,5.89-.21,8.83-.72-.02-1.44-.06-2.16-.13-.17-.02-.34-.04-.51-.06Zm19.73-5.03h-.01c.51-2.12,.77-4.11,.81-5.97h0c.02-.86,0-1.7-.07-2.51,.13-.02,.26-.08,.38-.19,.87-.78,1.74-1.56,2.61-2.35-.32,1.83-.81,3.62-1.49,5.34-.22,.55-.3,1.15-.24,1.74l.05,.51c.8-.44,1.42-1.14,1.74-1.99,.64-1.7,1.11-3.45,1.43-5.22,.58,.9,1.16,1.8,1.74,2.7-1.98,2.9-4.35,5.56-6.94,7.94Zm7.87-9.37c-.78-1.21-1.56-2.43-2.34-3.64,.09-.97,.14-1.95,.14-2.93,1.27,1.17,2.53,2.33,3.8,3.5,.03,.03,.06,.04,.08,.06-.51,1.03-1.07,2.03-1.68,3.01Zm5.34-44.23c1.16,.86,.57,2.64-.93,2.68-.84,.02-1.11,1.34-.22,1.53,2.3,.49,1.4,3.69-.82,2.85-.7-.26-1.38,.81-.77,1.29,1.59,1.27,.39,2.62-1.1,2.63-.92-1.93-1.81-3.88-2.72-5.82,.36,.1,.72,.2,1.08,.3,.4,.12,.82,.22,1.21,.22,.39,0,1.73-.13,1.73-.13l-.68-.69c-.43-.35-.92-.63-1.45-.79-.34-.11-.69-.2-1.04-.3,1.54-1.2,2.93-2.56,4.15-4.1v-.02c.55-.07,1.08,0,1.57,.35Zm-4.41,.54c-.99,1-2.07,1.91-3.23,2.72-.99-.24-2-.45-3-.64l2.54-1.89h.01c.2,.03,.41,.07,.62,.09,1.11,.14,2.08,0,3.07-.28Zm-5.56-.34l-2.79,2.07c-.98-.15-1.96-.28-2.95-.38l2.61-2.82v-.02c1.05,.34,2.08,.78,3.14,1.14Zm6.94-6.65c-.46-.04-.91-.07-1.36-.08-1.4-1.96-2.81-3.92-4.21-5.89,.94-.45,1.9-.88,2.85-1.28,.03,.05,.06,.1,.09,.14,2.06,2.57,4.28,4.99,6.68,7.24-1.39,.11-2.84-.03-4.06-.14Zm8.06-1.62c-.57,.68-1.3,1.11-2.1,1.38-2.58-2.36-4.98-4.9-7.18-7.62,.9-.35,1.79-.69,2.7-1h0c.06-.02,.12-.04,.18-.07h.04c.32-.14,.63-.29,.88-.48,.31-.23,1.31-1.14,1.31-1.14l-.96-.14c-.55-.03-1.11,.05-1.63,.24h-.02c-1.06,.37-2.11,.77-3.16,1.18,.37-3.15,.66-6.31,1.04-9.45,0-.07,0-.14,0-.2,.53-.22,1.09-.3,1.63-.14,2.19,.68,1.43,2.88,.55,4.29-.35,.55,.22,1.37,.87,1.15,1.66-.57,3.49-.23,4.13,1.61,.54,1.54-.13,3.27-1.47,4.16-.83,.55-.09,1.87,.77,1.35,1.09-.65,2.55-.08,3.1,1.03,.58,1.17,.11,2.89-.68,3.84Z"/></g></g></svg>